G04 #@! TF.GenerationSoftware,KiCad,Pcbnew,8.0.3*
G04 #@! TF.CreationDate,2024-06-27T10:28:22+02:00*
G04 #@! TF.ProjectId,145MHz_BPF,3134354d-487a-45f4-9250-462e6b696361,rev?*
G04 #@! TF.SameCoordinates,Original*
G04 #@! TF.FileFunction,Copper,L2,Bot*
G04 #@! TF.FilePolarity,Positive*
%FSLAX46Y46*%
G04 Gerber Fmt 4.6, Leading zero omitted, Abs format (unit mm)*
G04 Created by KiCad (PCBNEW 8.0.3) date 2024-06-27 10:28:22*
%MOMM*%
%LPD*%
G01*
G04 APERTURE LIST*
G04 Aperture macros list*
%AMRoundRect*
0 Rectangle with rounded corners*
0 $1 Rounding radius*
0 $2 $3 $4 $5 $6 $7 $8 $9 X,Y pos of 4 corners*
0 Add a 4 corners polygon primitive as box body*
4,1,4,$2,$3,$4,$5,$6,$7,$8,$9,$2,$3,0*
0 Add four circle primitives for the rounded corners*
1,1,$1+$1,$2,$3*
1,1,$1+$1,$4,$5*
1,1,$1+$1,$6,$7*
1,1,$1+$1,$8,$9*
0 Add four rect primitives between the rounded corners*
20,1,$1+$1,$2,$3,$4,$5,0*
20,1,$1+$1,$4,$5,$6,$7,0*
20,1,$1+$1,$6,$7,$8,$9,0*
20,1,$1+$1,$8,$9,$2,$3,0*%
G04 Aperture macros list end*
G04 #@! TA.AperFunction,ComponentPad*
%ADD10RoundRect,0.250000X0.550000X-0.550000X0.550000X0.550000X-0.550000X0.550000X-0.550000X-0.550000X0*%
G04 #@! TD*
G04 #@! TA.AperFunction,ComponentPad*
%ADD11C,1.600000*%
G04 #@! TD*
G04 #@! TA.AperFunction,ComponentPad*
%ADD12RoundRect,0.250000X-0.550000X-0.550000X0.550000X-0.550000X0.550000X0.550000X-0.550000X0.550000X0*%
G04 #@! TD*
G04 #@! TA.AperFunction,ComponentPad*
%ADD13C,1.016000*%
G04 #@! TD*
G04 #@! TA.AperFunction,ViaPad*
%ADD14C,0.600000*%
G04 #@! TD*
G04 APERTURE END LIST*
D10*
X88000000Y-91800000D03*
D11*
X88000000Y-86500000D03*
D12*
X104700000Y-92000000D03*
D10*
X122000000Y-91800000D03*
D11*
X122000000Y-84000000D03*
D13*
X113842000Y-88715000D03*
X112318000Y-88715000D03*
X108762000Y-76015000D03*
X107238000Y-76015000D03*
X108762000Y-88715000D03*
X107238000Y-88715000D03*
X103682000Y-76015000D03*
X102158000Y-76015000D03*
X103682000Y-88715000D03*
X102158000Y-88715000D03*
X98602000Y-76015000D03*
X97078000Y-76015000D03*
X113080000Y-81730000D03*
X110540000Y-81730000D03*
X108000000Y-81730000D03*
X105460000Y-81730000D03*
X102920000Y-81730000D03*
X100380000Y-81730000D03*
X97840000Y-81730000D03*
X113080000Y-83000000D03*
X110540000Y-83000000D03*
X108000000Y-83000000D03*
X105460000Y-83000000D03*
X102920000Y-83000000D03*
X100380000Y-83000000D03*
X97840000Y-83000000D03*
X113842000Y-63715000D03*
X112318000Y-63715000D03*
X108762000Y-51015000D03*
X107238000Y-51015000D03*
X108762000Y-63715000D03*
X107238000Y-63715000D03*
X103682000Y-51015000D03*
X102158000Y-51015000D03*
X103682000Y-63715000D03*
X102158000Y-63715000D03*
X98602000Y-51015000D03*
X97078000Y-51015000D03*
X113080000Y-56730000D03*
X110540000Y-56730000D03*
X108000000Y-56730000D03*
X105460000Y-56730000D03*
X102920000Y-56730000D03*
X100380000Y-56730000D03*
X97840000Y-56730000D03*
X113080000Y-58000000D03*
X110540000Y-58000000D03*
X108000000Y-58000000D03*
X105460000Y-58000000D03*
X102920000Y-58000000D03*
X100380000Y-58000000D03*
X97840000Y-58000000D03*
D10*
X122000000Y-66800000D03*
D11*
X122000000Y-59000000D03*
D12*
X104700000Y-67000000D03*
D10*
X88000000Y-66800000D03*
D11*
X88000000Y-61500000D03*
D14*
X100000000Y-94000000D03*
X122000000Y-71000000D03*
X86000000Y-94000000D03*
X120000000Y-71000000D03*
X100000000Y-71000000D03*
X120000000Y-94000000D03*
X86000000Y-75000000D03*
X124000000Y-85000000D03*
X90000000Y-71000000D03*
X114000000Y-71000000D03*
X108000000Y-94000000D03*
X124000000Y-79000000D03*
X106000000Y-94000000D03*
X88000000Y-71000000D03*
X124000000Y-83000000D03*
X86000000Y-73000000D03*
X112000000Y-94000000D03*
X112000000Y-71000000D03*
X118000000Y-71000000D03*
X94000000Y-94000000D03*
X116000000Y-71000000D03*
X106000000Y-71000000D03*
X86000000Y-79000000D03*
X86000000Y-81000000D03*
X108000000Y-71000000D03*
X98000000Y-94000000D03*
X86000000Y-87000000D03*
X104000000Y-94000000D03*
X124000000Y-94000000D03*
X116000000Y-94000000D03*
X94000000Y-71000000D03*
X102000000Y-94000000D03*
X124000000Y-89000000D03*
X88000000Y-94000000D03*
X110000000Y-71000000D03*
X90000000Y-94000000D03*
X124000000Y-73000000D03*
X98000000Y-71000000D03*
X86000000Y-77000000D03*
X86000000Y-91000000D03*
X124000000Y-71000000D03*
X124000000Y-87000000D03*
X92000000Y-71000000D03*
X102000000Y-71000000D03*
X92000000Y-94000000D03*
X104000000Y-71000000D03*
X124000000Y-81000000D03*
X86000000Y-85000000D03*
X96000000Y-94000000D03*
X122000000Y-94000000D03*
X124000000Y-75000000D03*
X124000000Y-93000000D03*
X86000000Y-93000000D03*
X124000000Y-77000000D03*
X110000000Y-94000000D03*
X118000000Y-94000000D03*
X86000000Y-71000000D03*
X114000000Y-94000000D03*
X86000000Y-89000000D03*
X96000000Y-71000000D03*
X124000000Y-91000000D03*
X86000000Y-83000000D03*
X124000000Y-66000000D03*
X86000000Y-58000000D03*
X96000000Y-46000000D03*
X86000000Y-64000000D03*
X124000000Y-50000000D03*
X110000000Y-69000000D03*
X124000000Y-52000000D03*
X114000000Y-69000000D03*
X118000000Y-69000000D03*
X86000000Y-68000000D03*
X122000000Y-69000000D03*
X86000000Y-46000000D03*
X124000000Y-68000000D03*
X124000000Y-56000000D03*
X104000000Y-46000000D03*
X92000000Y-69000000D03*
X96000000Y-69000000D03*
X102000000Y-46000000D03*
X124000000Y-62000000D03*
X92000000Y-46000000D03*
X124000000Y-46000000D03*
X86000000Y-60000000D03*
X110000000Y-46000000D03*
X88000000Y-69000000D03*
X102000000Y-69000000D03*
X124000000Y-64000000D03*
X86000000Y-66000000D03*
X86000000Y-52000000D03*
X98000000Y-46000000D03*
X124000000Y-48000000D03*
X90000000Y-69000000D03*
X86000000Y-48000000D03*
X94000000Y-69000000D03*
X116000000Y-46000000D03*
X88000000Y-46000000D03*
X112000000Y-69000000D03*
X118000000Y-46000000D03*
X86000000Y-56000000D03*
X112000000Y-46000000D03*
X104000000Y-69000000D03*
X86000000Y-62000000D03*
X94000000Y-46000000D03*
X106000000Y-46000000D03*
X124000000Y-58000000D03*
X116000000Y-69000000D03*
X124000000Y-69000000D03*
X98000000Y-69000000D03*
X108000000Y-46000000D03*
X86000000Y-54000000D03*
X114000000Y-46000000D03*
X124000000Y-54000000D03*
X122000000Y-46000000D03*
X120000000Y-69000000D03*
X90000000Y-46000000D03*
X100000000Y-69000000D03*
X100000000Y-46000000D03*
X108000000Y-69000000D03*
X120000000Y-46000000D03*
X124000000Y-60000000D03*
X106000000Y-69000000D03*
X86000000Y-50000000D03*
X86000000Y-69000000D03*
G04 #@! TA.AperFunction,Conductor*
G36*
X124442539Y-45520185D02*
G01*
X124488294Y-45572989D01*
X124499500Y-45624500D01*
X124499500Y-70000000D01*
X85500500Y-70000000D01*
X85500500Y-66199983D01*
X86699500Y-66199983D01*
X86699500Y-67400001D01*
X86699501Y-67400018D01*
X86710000Y-67502796D01*
X86710001Y-67502799D01*
X86765185Y-67669331D01*
X86765186Y-67669334D01*
X86857288Y-67818656D01*
X86981344Y-67942712D01*
X87130666Y-68034814D01*
X87297203Y-68089999D01*
X87399991Y-68100500D01*
X88600008Y-68100499D01*
X88702797Y-68089999D01*
X88869334Y-68034814D01*
X89018656Y-67942712D01*
X89142712Y-67818656D01*
X89234814Y-67669334D01*
X89289999Y-67502797D01*
X89300500Y-67400009D01*
X89300499Y-66199992D01*
X89300498Y-66199983D01*
X120699500Y-66199983D01*
X120699500Y-67400001D01*
X120699501Y-67400018D01*
X120710000Y-67502796D01*
X120710001Y-67502799D01*
X120765185Y-67669331D01*
X120765186Y-67669334D01*
X120857288Y-67818656D01*
X120981344Y-67942712D01*
X121130666Y-68034814D01*
X121297203Y-68089999D01*
X121399991Y-68100500D01*
X122600008Y-68100499D01*
X122702797Y-68089999D01*
X122869334Y-68034814D01*
X123018656Y-67942712D01*
X123142712Y-67818656D01*
X123234814Y-67669334D01*
X123289999Y-67502797D01*
X123300500Y-67400009D01*
X123300499Y-66199992D01*
X123289999Y-66097203D01*
X123234814Y-65930666D01*
X123142712Y-65781344D01*
X123018656Y-65657288D01*
X122869334Y-65565186D01*
X122702797Y-65510001D01*
X122702795Y-65510000D01*
X122600010Y-65499500D01*
X121399998Y-65499500D01*
X121399981Y-65499501D01*
X121297203Y-65510000D01*
X121297200Y-65510001D01*
X121130668Y-65565185D01*
X121130663Y-65565187D01*
X120981342Y-65657289D01*
X120857289Y-65781342D01*
X120765187Y-65930663D01*
X120765186Y-65930666D01*
X120710001Y-66097203D01*
X120710001Y-66097204D01*
X120710000Y-66097204D01*
X120699500Y-66199983D01*
X89300498Y-66199983D01*
X89289999Y-66097203D01*
X89234814Y-65930666D01*
X89142712Y-65781344D01*
X89018656Y-65657288D01*
X88869334Y-65565186D01*
X88702797Y-65510001D01*
X88702795Y-65510000D01*
X88600010Y-65499500D01*
X87399998Y-65499500D01*
X87399981Y-65499501D01*
X87297203Y-65510000D01*
X87297200Y-65510001D01*
X87130668Y-65565185D01*
X87130663Y-65565187D01*
X86981342Y-65657289D01*
X86857289Y-65781342D01*
X86765187Y-65930663D01*
X86765186Y-65930666D01*
X86710001Y-66097203D01*
X86710001Y-66097204D01*
X86710000Y-66097204D01*
X86699500Y-66199983D01*
X85500500Y-66199983D01*
X85500500Y-45624500D01*
X85520185Y-45557461D01*
X85572989Y-45511706D01*
X85624500Y-45500500D01*
X124375500Y-45500500D01*
X124442539Y-45520185D01*
G37*
G04 #@! TD.AperFunction*
G04 #@! TA.AperFunction,Conductor*
G36*
X124499500Y-94375500D02*
G01*
X124479815Y-94442539D01*
X124427011Y-94488294D01*
X124375500Y-94499500D01*
X85624500Y-94499500D01*
X85557461Y-94479815D01*
X85511706Y-94427011D01*
X85500500Y-94375500D01*
X85500500Y-91199983D01*
X86699500Y-91199983D01*
X86699500Y-92400001D01*
X86699501Y-92400018D01*
X86710000Y-92502796D01*
X86710001Y-92502799D01*
X86765185Y-92669331D01*
X86765186Y-92669334D01*
X86857288Y-92818656D01*
X86981344Y-92942712D01*
X87130666Y-93034814D01*
X87297203Y-93089999D01*
X87399991Y-93100500D01*
X88600008Y-93100499D01*
X88702797Y-93089999D01*
X88869334Y-93034814D01*
X89018656Y-92942712D01*
X89142712Y-92818656D01*
X89234814Y-92669334D01*
X89289999Y-92502797D01*
X89300500Y-92400009D01*
X89300499Y-91199992D01*
X89300498Y-91199983D01*
X120699500Y-91199983D01*
X120699500Y-92400001D01*
X120699501Y-92400018D01*
X120710000Y-92502796D01*
X120710001Y-92502799D01*
X120765185Y-92669331D01*
X120765186Y-92669334D01*
X120857288Y-92818656D01*
X120981344Y-92942712D01*
X121130666Y-93034814D01*
X121297203Y-93089999D01*
X121399991Y-93100500D01*
X122600008Y-93100499D01*
X122702797Y-93089999D01*
X122869334Y-93034814D01*
X123018656Y-92942712D01*
X123142712Y-92818656D01*
X123234814Y-92669334D01*
X123289999Y-92502797D01*
X123300500Y-92400009D01*
X123300499Y-91199992D01*
X123289999Y-91097203D01*
X123234814Y-90930666D01*
X123142712Y-90781344D01*
X123018656Y-90657288D01*
X122869334Y-90565186D01*
X122702797Y-90510001D01*
X122702795Y-90510000D01*
X122600010Y-90499500D01*
X121399998Y-90499500D01*
X121399981Y-90499501D01*
X121297203Y-90510000D01*
X121297200Y-90510001D01*
X121130668Y-90565185D01*
X121130663Y-90565187D01*
X120981342Y-90657289D01*
X120857289Y-90781342D01*
X120765187Y-90930663D01*
X120765186Y-90930666D01*
X120710001Y-91097203D01*
X120710001Y-91097204D01*
X120710000Y-91097204D01*
X120699500Y-91199983D01*
X89300498Y-91199983D01*
X89289999Y-91097203D01*
X89234814Y-90930666D01*
X89142712Y-90781344D01*
X89018656Y-90657288D01*
X88869334Y-90565186D01*
X88702797Y-90510001D01*
X88702795Y-90510000D01*
X88600010Y-90499500D01*
X87399998Y-90499500D01*
X87399981Y-90499501D01*
X87297203Y-90510000D01*
X87297200Y-90510001D01*
X87130668Y-90565185D01*
X87130663Y-90565187D01*
X86981342Y-90657289D01*
X86857289Y-90781342D01*
X86765187Y-90930663D01*
X86765186Y-90930666D01*
X86710001Y-91097203D01*
X86710001Y-91097204D01*
X86710000Y-91097204D01*
X86699500Y-91199983D01*
X85500500Y-91199983D01*
X85500500Y-70000000D01*
X124499500Y-70000000D01*
X124499500Y-94375500D01*
G37*
G04 #@! TD.AperFunction*
M02*
