%TF.GenerationSoftware,KiCad,Pcbnew,8.0.3*%
%TF.CreationDate,2024-06-27T10:28:47+02:00*%
%TF.ProjectId,145MHz_BPF,3134354d-487a-45f4-9250-462e6b696361,rev?*%
%TF.SameCoordinates,Original*%
%TF.FileFunction,Drillmap*%
%TF.FilePolarity,Positive*%
%FSLAX45Y45*%
G04 Gerber Fmt 4.5, Leading zero omitted, Abs format (unit mm)*
G04 Created by KiCad (PCBNEW 8.0.3) date 2024-06-27 10:28:47*
%MOMM*%
%LPD*%
G01*
G04 APERTURE LIST*
%ADD10C,0.050000*%
%ADD11C,0.200000*%
G04 APERTURE END LIST*
D10*
X8500000Y-4500000D02*
X12500000Y-4500000D01*
X12500000Y-9500000D01*
X8500000Y-9500000D01*
X8500000Y-4500000D01*
D11*
X8758277Y-9813984D02*
X8758277Y-9613984D01*
X8758277Y-9613984D02*
X8805896Y-9613984D01*
X8805896Y-9613984D02*
X8834467Y-9623508D01*
X8834467Y-9623508D02*
X8853515Y-9642555D01*
X8853515Y-9642555D02*
X8863039Y-9661603D01*
X8863039Y-9661603D02*
X8872563Y-9699698D01*
X8872563Y-9699698D02*
X8872563Y-9728270D01*
X8872563Y-9728270D02*
X8863039Y-9766365D01*
X8863039Y-9766365D02*
X8853515Y-9785412D01*
X8853515Y-9785412D02*
X8834467Y-9804460D01*
X8834467Y-9804460D02*
X8805896Y-9813984D01*
X8805896Y-9813984D02*
X8758277Y-9813984D01*
X8958277Y-9813984D02*
X8958277Y-9680650D01*
X8958277Y-9718746D02*
X8967801Y-9699698D01*
X8967801Y-9699698D02*
X8977324Y-9690174D01*
X8977324Y-9690174D02*
X8996372Y-9680650D01*
X8996372Y-9680650D02*
X9015420Y-9680650D01*
X9082086Y-9813984D02*
X9082086Y-9680650D01*
X9082086Y-9613984D02*
X9072563Y-9623508D01*
X9072563Y-9623508D02*
X9082086Y-9633031D01*
X9082086Y-9633031D02*
X9091610Y-9623508D01*
X9091610Y-9623508D02*
X9082086Y-9613984D01*
X9082086Y-9613984D02*
X9082086Y-9633031D01*
X9205896Y-9813984D02*
X9186848Y-9804460D01*
X9186848Y-9804460D02*
X9177324Y-9785412D01*
X9177324Y-9785412D02*
X9177324Y-9613984D01*
X9310658Y-9813984D02*
X9291610Y-9804460D01*
X9291610Y-9804460D02*
X9282086Y-9785412D01*
X9282086Y-9785412D02*
X9282086Y-9613984D01*
X9539229Y-9813984D02*
X9539229Y-9613984D01*
X9539229Y-9613984D02*
X9605896Y-9756841D01*
X9605896Y-9756841D02*
X9672563Y-9613984D01*
X9672563Y-9613984D02*
X9672563Y-9813984D01*
X9853515Y-9813984D02*
X9853515Y-9709222D01*
X9853515Y-9709222D02*
X9843991Y-9690174D01*
X9843991Y-9690174D02*
X9824944Y-9680650D01*
X9824944Y-9680650D02*
X9786848Y-9680650D01*
X9786848Y-9680650D02*
X9767801Y-9690174D01*
X9853515Y-9804460D02*
X9834467Y-9813984D01*
X9834467Y-9813984D02*
X9786848Y-9813984D01*
X9786848Y-9813984D02*
X9767801Y-9804460D01*
X9767801Y-9804460D02*
X9758277Y-9785412D01*
X9758277Y-9785412D02*
X9758277Y-9766365D01*
X9758277Y-9766365D02*
X9767801Y-9747317D01*
X9767801Y-9747317D02*
X9786848Y-9737793D01*
X9786848Y-9737793D02*
X9834467Y-9737793D01*
X9834467Y-9737793D02*
X9853515Y-9728270D01*
X9948753Y-9680650D02*
X9948753Y-9880650D01*
X9948753Y-9690174D02*
X9967801Y-9680650D01*
X9967801Y-9680650D02*
X10005896Y-9680650D01*
X10005896Y-9680650D02*
X10024944Y-9690174D01*
X10024944Y-9690174D02*
X10034467Y-9699698D01*
X10034467Y-9699698D02*
X10043991Y-9718746D01*
X10043991Y-9718746D02*
X10043991Y-9775889D01*
X10043991Y-9775889D02*
X10034467Y-9794936D01*
X10034467Y-9794936D02*
X10024944Y-9804460D01*
X10024944Y-9804460D02*
X10005896Y-9813984D01*
X10005896Y-9813984D02*
X9967801Y-9813984D01*
X9967801Y-9813984D02*
X9948753Y-9804460D01*
X10129705Y-9794936D02*
X10139229Y-9804460D01*
X10139229Y-9804460D02*
X10129705Y-9813984D01*
X10129705Y-9813984D02*
X10120182Y-9804460D01*
X10120182Y-9804460D02*
X10129705Y-9794936D01*
X10129705Y-9794936D02*
X10129705Y-9813984D01*
X10129705Y-9690174D02*
X10139229Y-9699698D01*
X10139229Y-9699698D02*
X10129705Y-9709222D01*
X10129705Y-9709222D02*
X10120182Y-9699698D01*
X10120182Y-9699698D02*
X10129705Y-9690174D01*
X10129705Y-9690174D02*
X10129705Y-9709222D01*
M02*
