%TF.GenerationSoftware,KiCad,Pcbnew,8.0.3*%
%TF.CreationDate,2024-06-27T10:28:47+02:00*%
%TF.ProjectId,145MHz_BPF,3134354d-487a-45f4-9250-462e6b696361,rev?*%
%TF.SameCoordinates,Original*%
%TF.FileFunction,Drillmap*%
%TF.FilePolarity,Positive*%
%FSLAX45Y45*%
G04 Gerber Fmt 4.5, Leading zero omitted, Abs format (unit mm)*
G04 Created by KiCad (PCBNEW 8.0.3) date 2024-06-27 10:28:47*
%MOMM*%
%LPD*%
G01*
G04 APERTURE LIST*
%ADD10C,0.050000*%
%ADD11C,0.200000*%
%ADD12C,0.100000*%
G04 APERTURE END LIST*
D10*
X8500000Y-4500000D02*
X12500000Y-4500000D01*
X12500000Y-9500000D01*
X8500000Y-9500000D01*
X8500000Y-4500000D01*
D11*
D12*
X8585000Y-4585000D02*
X8615000Y-4615000D01*
X8615000Y-4585000D02*
X8585000Y-4615000D01*
X8585000Y-4785000D02*
X8615000Y-4815000D01*
X8615000Y-4785000D02*
X8585000Y-4815000D01*
X8585000Y-4985000D02*
X8615000Y-5015000D01*
X8615000Y-4985000D02*
X8585000Y-5015000D01*
X8585000Y-5185000D02*
X8615000Y-5215000D01*
X8615000Y-5185000D02*
X8585000Y-5215000D01*
X8585000Y-5385000D02*
X8615000Y-5415000D01*
X8615000Y-5385000D02*
X8585000Y-5415000D01*
X8585000Y-5585000D02*
X8615000Y-5615000D01*
X8615000Y-5585000D02*
X8585000Y-5615000D01*
X8585000Y-5785000D02*
X8615000Y-5815000D01*
X8615000Y-5785000D02*
X8585000Y-5815000D01*
X8585000Y-5985000D02*
X8615000Y-6015000D01*
X8615000Y-5985000D02*
X8585000Y-6015000D01*
X8585000Y-6185000D02*
X8615000Y-6215000D01*
X8615000Y-6185000D02*
X8585000Y-6215000D01*
X8585000Y-6385000D02*
X8615000Y-6415000D01*
X8615000Y-6385000D02*
X8585000Y-6415000D01*
X8585000Y-6585000D02*
X8615000Y-6615000D01*
X8615000Y-6585000D02*
X8585000Y-6615000D01*
X8585000Y-6785000D02*
X8615000Y-6815000D01*
X8615000Y-6785000D02*
X8585000Y-6815000D01*
X8585000Y-6885000D02*
X8615000Y-6915000D01*
X8615000Y-6885000D02*
X8585000Y-6915000D01*
X8585000Y-7085000D02*
X8615000Y-7115000D01*
X8615000Y-7085000D02*
X8585000Y-7115000D01*
X8585000Y-7285000D02*
X8615000Y-7315000D01*
X8615000Y-7285000D02*
X8585000Y-7315000D01*
X8585000Y-7485000D02*
X8615000Y-7515000D01*
X8615000Y-7485000D02*
X8585000Y-7515000D01*
X8585000Y-7685000D02*
X8615000Y-7715000D01*
X8615000Y-7685000D02*
X8585000Y-7715000D01*
X8585000Y-7885000D02*
X8615000Y-7915000D01*
X8615000Y-7885000D02*
X8585000Y-7915000D01*
X8585000Y-8085000D02*
X8615000Y-8115000D01*
X8615000Y-8085000D02*
X8585000Y-8115000D01*
X8585000Y-8285000D02*
X8615000Y-8315000D01*
X8615000Y-8285000D02*
X8585000Y-8315000D01*
X8585000Y-8485000D02*
X8615000Y-8515000D01*
X8615000Y-8485000D02*
X8585000Y-8515000D01*
X8585000Y-8685000D02*
X8615000Y-8715000D01*
X8615000Y-8685000D02*
X8585000Y-8715000D01*
X8585000Y-8885000D02*
X8615000Y-8915000D01*
X8615000Y-8885000D02*
X8585000Y-8915000D01*
X8585000Y-9085000D02*
X8615000Y-9115000D01*
X8615000Y-9085000D02*
X8585000Y-9115000D01*
X8585000Y-9285000D02*
X8615000Y-9315000D01*
X8615000Y-9285000D02*
X8585000Y-9315000D01*
X8585000Y-9385000D02*
X8615000Y-9415000D01*
X8615000Y-9385000D02*
X8585000Y-9415000D01*
X8785000Y-4585000D02*
X8815000Y-4615000D01*
X8815000Y-4585000D02*
X8785000Y-4615000D01*
X8785000Y-6885000D02*
X8815000Y-6915000D01*
X8815000Y-6885000D02*
X8785000Y-6915000D01*
X8785000Y-7085000D02*
X8815000Y-7115000D01*
X8815000Y-7085000D02*
X8785000Y-7115000D01*
X8785000Y-9385000D02*
X8815000Y-9415000D01*
X8815000Y-9385000D02*
X8785000Y-9415000D01*
X8985000Y-4585000D02*
X9015000Y-4615000D01*
X9015000Y-4585000D02*
X8985000Y-4615000D01*
X8985000Y-6885000D02*
X9015000Y-6915000D01*
X9015000Y-6885000D02*
X8985000Y-6915000D01*
X8985000Y-7085000D02*
X9015000Y-7115000D01*
X9015000Y-7085000D02*
X8985000Y-7115000D01*
X8985000Y-9385000D02*
X9015000Y-9415000D01*
X9015000Y-9385000D02*
X8985000Y-9415000D01*
X9185000Y-4585000D02*
X9215000Y-4615000D01*
X9215000Y-4585000D02*
X9185000Y-4615000D01*
X9185000Y-6885000D02*
X9215000Y-6915000D01*
X9215000Y-6885000D02*
X9185000Y-6915000D01*
X9185000Y-7085000D02*
X9215000Y-7115000D01*
X9215000Y-7085000D02*
X9185000Y-7115000D01*
X9185000Y-9385000D02*
X9215000Y-9415000D01*
X9215000Y-9385000D02*
X9185000Y-9415000D01*
X9385000Y-4585000D02*
X9415000Y-4615000D01*
X9415000Y-4585000D02*
X9385000Y-4615000D01*
X9385000Y-6885000D02*
X9415000Y-6915000D01*
X9415000Y-6885000D02*
X9385000Y-6915000D01*
X9385000Y-7085000D02*
X9415000Y-7115000D01*
X9415000Y-7085000D02*
X9385000Y-7115000D01*
X9385000Y-9385000D02*
X9415000Y-9415000D01*
X9415000Y-9385000D02*
X9385000Y-9415000D01*
X9585000Y-4585000D02*
X9615000Y-4615000D01*
X9615000Y-4585000D02*
X9585000Y-4615000D01*
X9585000Y-6885000D02*
X9615000Y-6915000D01*
X9615000Y-6885000D02*
X9585000Y-6915000D01*
X9585000Y-7085000D02*
X9615000Y-7115000D01*
X9615000Y-7085000D02*
X9585000Y-7115000D01*
X9585000Y-9385000D02*
X9615000Y-9415000D01*
X9615000Y-9385000D02*
X9585000Y-9415000D01*
X9785000Y-4585000D02*
X9815000Y-4615000D01*
X9815000Y-4585000D02*
X9785000Y-4615000D01*
X9785000Y-6885000D02*
X9815000Y-6915000D01*
X9815000Y-6885000D02*
X9785000Y-6915000D01*
X9785000Y-7085000D02*
X9815000Y-7115000D01*
X9815000Y-7085000D02*
X9785000Y-7115000D01*
X9785000Y-9385000D02*
X9815000Y-9415000D01*
X9815000Y-9385000D02*
X9785000Y-9415000D01*
X9985000Y-4585000D02*
X10015000Y-4615000D01*
X10015000Y-4585000D02*
X9985000Y-4615000D01*
X9985000Y-6885000D02*
X10015000Y-6915000D01*
X10015000Y-6885000D02*
X9985000Y-6915000D01*
X9985000Y-7085000D02*
X10015000Y-7115000D01*
X10015000Y-7085000D02*
X9985000Y-7115000D01*
X9985000Y-9385000D02*
X10015000Y-9415000D01*
X10015000Y-9385000D02*
X9985000Y-9415000D01*
X10185000Y-4585000D02*
X10215000Y-4615000D01*
X10215000Y-4585000D02*
X10185000Y-4615000D01*
X10185000Y-6885000D02*
X10215000Y-6915000D01*
X10215000Y-6885000D02*
X10185000Y-6915000D01*
X10185000Y-7085000D02*
X10215000Y-7115000D01*
X10215000Y-7085000D02*
X10185000Y-7115000D01*
X10185000Y-9385000D02*
X10215000Y-9415000D01*
X10215000Y-9385000D02*
X10185000Y-9415000D01*
X10385000Y-4585000D02*
X10415000Y-4615000D01*
X10415000Y-4585000D02*
X10385000Y-4615000D01*
X10385000Y-6885000D02*
X10415000Y-6915000D01*
X10415000Y-6885000D02*
X10385000Y-6915000D01*
X10385000Y-7085000D02*
X10415000Y-7115000D01*
X10415000Y-7085000D02*
X10385000Y-7115000D01*
X10385000Y-9385000D02*
X10415000Y-9415000D01*
X10415000Y-9385000D02*
X10385000Y-9415000D01*
X10585000Y-4585000D02*
X10615000Y-4615000D01*
X10615000Y-4585000D02*
X10585000Y-4615000D01*
X10585000Y-6885000D02*
X10615000Y-6915000D01*
X10615000Y-6885000D02*
X10585000Y-6915000D01*
X10585000Y-7085000D02*
X10615000Y-7115000D01*
X10615000Y-7085000D02*
X10585000Y-7115000D01*
X10585000Y-9385000D02*
X10615000Y-9415000D01*
X10615000Y-9385000D02*
X10585000Y-9415000D01*
X10785000Y-4585000D02*
X10815000Y-4615000D01*
X10815000Y-4585000D02*
X10785000Y-4615000D01*
X10785000Y-6885000D02*
X10815000Y-6915000D01*
X10815000Y-6885000D02*
X10785000Y-6915000D01*
X10785000Y-7085000D02*
X10815000Y-7115000D01*
X10815000Y-7085000D02*
X10785000Y-7115000D01*
X10785000Y-9385000D02*
X10815000Y-9415000D01*
X10815000Y-9385000D02*
X10785000Y-9415000D01*
X10985000Y-4585000D02*
X11015000Y-4615000D01*
X11015000Y-4585000D02*
X10985000Y-4615000D01*
X10985000Y-6885000D02*
X11015000Y-6915000D01*
X11015000Y-6885000D02*
X10985000Y-6915000D01*
X10985000Y-7085000D02*
X11015000Y-7115000D01*
X11015000Y-7085000D02*
X10985000Y-7115000D01*
X10985000Y-9385000D02*
X11015000Y-9415000D01*
X11015000Y-9385000D02*
X10985000Y-9415000D01*
X11185000Y-4585000D02*
X11215000Y-4615000D01*
X11215000Y-4585000D02*
X11185000Y-4615000D01*
X11185000Y-6885000D02*
X11215000Y-6915000D01*
X11215000Y-6885000D02*
X11185000Y-6915000D01*
X11185000Y-7085000D02*
X11215000Y-7115000D01*
X11215000Y-7085000D02*
X11185000Y-7115000D01*
X11185000Y-9385000D02*
X11215000Y-9415000D01*
X11215000Y-9385000D02*
X11185000Y-9415000D01*
X11385000Y-4585000D02*
X11415000Y-4615000D01*
X11415000Y-4585000D02*
X11385000Y-4615000D01*
X11385000Y-6885000D02*
X11415000Y-6915000D01*
X11415000Y-6885000D02*
X11385000Y-6915000D01*
X11385000Y-7085000D02*
X11415000Y-7115000D01*
X11415000Y-7085000D02*
X11385000Y-7115000D01*
X11385000Y-9385000D02*
X11415000Y-9415000D01*
X11415000Y-9385000D02*
X11385000Y-9415000D01*
X11585000Y-4585000D02*
X11615000Y-4615000D01*
X11615000Y-4585000D02*
X11585000Y-4615000D01*
X11585000Y-6885000D02*
X11615000Y-6915000D01*
X11615000Y-6885000D02*
X11585000Y-6915000D01*
X11585000Y-7085000D02*
X11615000Y-7115000D01*
X11615000Y-7085000D02*
X11585000Y-7115000D01*
X11585000Y-9385000D02*
X11615000Y-9415000D01*
X11615000Y-9385000D02*
X11585000Y-9415000D01*
X11785000Y-4585000D02*
X11815000Y-4615000D01*
X11815000Y-4585000D02*
X11785000Y-4615000D01*
X11785000Y-6885000D02*
X11815000Y-6915000D01*
X11815000Y-6885000D02*
X11785000Y-6915000D01*
X11785000Y-7085000D02*
X11815000Y-7115000D01*
X11815000Y-7085000D02*
X11785000Y-7115000D01*
X11785000Y-9385000D02*
X11815000Y-9415000D01*
X11815000Y-9385000D02*
X11785000Y-9415000D01*
X11985000Y-4585000D02*
X12015000Y-4615000D01*
X12015000Y-4585000D02*
X11985000Y-4615000D01*
X11985000Y-6885000D02*
X12015000Y-6915000D01*
X12015000Y-6885000D02*
X11985000Y-6915000D01*
X11985000Y-7085000D02*
X12015000Y-7115000D01*
X12015000Y-7085000D02*
X11985000Y-7115000D01*
X11985000Y-9385000D02*
X12015000Y-9415000D01*
X12015000Y-9385000D02*
X11985000Y-9415000D01*
X12185000Y-4585000D02*
X12215000Y-4615000D01*
X12215000Y-4585000D02*
X12185000Y-4615000D01*
X12185000Y-6885000D02*
X12215000Y-6915000D01*
X12215000Y-6885000D02*
X12185000Y-6915000D01*
X12185000Y-7085000D02*
X12215000Y-7115000D01*
X12215000Y-7085000D02*
X12185000Y-7115000D01*
X12185000Y-9385000D02*
X12215000Y-9415000D01*
X12215000Y-9385000D02*
X12185000Y-9415000D01*
X12385000Y-4585000D02*
X12415000Y-4615000D01*
X12415000Y-4585000D02*
X12385000Y-4615000D01*
X12385000Y-4785000D02*
X12415000Y-4815000D01*
X12415000Y-4785000D02*
X12385000Y-4815000D01*
X12385000Y-4985000D02*
X12415000Y-5015000D01*
X12415000Y-4985000D02*
X12385000Y-5015000D01*
X12385000Y-5185000D02*
X12415000Y-5215000D01*
X12415000Y-5185000D02*
X12385000Y-5215000D01*
X12385000Y-5385000D02*
X12415000Y-5415000D01*
X12415000Y-5385000D02*
X12385000Y-5415000D01*
X12385000Y-5585000D02*
X12415000Y-5615000D01*
X12415000Y-5585000D02*
X12385000Y-5615000D01*
X12385000Y-5785000D02*
X12415000Y-5815000D01*
X12415000Y-5785000D02*
X12385000Y-5815000D01*
X12385000Y-5985000D02*
X12415000Y-6015000D01*
X12415000Y-5985000D02*
X12385000Y-6015000D01*
X12385000Y-6185000D02*
X12415000Y-6215000D01*
X12415000Y-6185000D02*
X12385000Y-6215000D01*
X12385000Y-6385000D02*
X12415000Y-6415000D01*
X12415000Y-6385000D02*
X12385000Y-6415000D01*
X12385000Y-6585000D02*
X12415000Y-6615000D01*
X12415000Y-6585000D02*
X12385000Y-6615000D01*
X12385000Y-6785000D02*
X12415000Y-6815000D01*
X12415000Y-6785000D02*
X12385000Y-6815000D01*
X12385000Y-6885000D02*
X12415000Y-6915000D01*
X12415000Y-6885000D02*
X12385000Y-6915000D01*
X12385000Y-7085000D02*
X12415000Y-7115000D01*
X12415000Y-7085000D02*
X12385000Y-7115000D01*
X12385000Y-7285000D02*
X12415000Y-7315000D01*
X12415000Y-7285000D02*
X12385000Y-7315000D01*
X12385000Y-7485000D02*
X12415000Y-7515000D01*
X12415000Y-7485000D02*
X12385000Y-7515000D01*
X12385000Y-7685000D02*
X12415000Y-7715000D01*
X12415000Y-7685000D02*
X12385000Y-7715000D01*
X12385000Y-7885000D02*
X12415000Y-7915000D01*
X12415000Y-7885000D02*
X12385000Y-7915000D01*
X12385000Y-8085000D02*
X12415000Y-8115000D01*
X12415000Y-8085000D02*
X12385000Y-8115000D01*
X12385000Y-8285000D02*
X12415000Y-8315000D01*
X12415000Y-8285000D02*
X12385000Y-8315000D01*
X12385000Y-8485000D02*
X12415000Y-8515000D01*
X12415000Y-8485000D02*
X12385000Y-8515000D01*
X12385000Y-8685000D02*
X12415000Y-8715000D01*
X12415000Y-8685000D02*
X12385000Y-8715000D01*
X12385000Y-8885000D02*
X12415000Y-8915000D01*
X12415000Y-8885000D02*
X12385000Y-8915000D01*
X12385000Y-9085000D02*
X12415000Y-9115000D01*
X12415000Y-9085000D02*
X12385000Y-9115000D01*
X12385000Y-9285000D02*
X12415000Y-9315000D01*
X12415000Y-9285000D02*
X12385000Y-9315000D01*
X12385000Y-9385000D02*
X12415000Y-9415000D01*
X12415000Y-9385000D02*
X12385000Y-9415000D01*
X9733200Y-5101500D02*
G75*
G02*
X9682400Y-5101500I-25400J0D01*
G01*
X9682400Y-5101500D02*
G75*
G02*
X9733200Y-5101500I25400J0D01*
G01*
X9733200Y-7601500D02*
G75*
G02*
X9682400Y-7601500I-25400J0D01*
G01*
X9682400Y-7601500D02*
G75*
G02*
X9733200Y-7601500I25400J0D01*
G01*
X9809400Y-5673000D02*
G75*
G02*
X9758600Y-5673000I-25400J0D01*
G01*
X9758600Y-5673000D02*
G75*
G02*
X9809400Y-5673000I25400J0D01*
G01*
X9809400Y-5800000D02*
G75*
G02*
X9758600Y-5800000I-25400J0D01*
G01*
X9758600Y-5800000D02*
G75*
G02*
X9809400Y-5800000I25400J0D01*
G01*
X9809400Y-8173000D02*
G75*
G02*
X9758600Y-8173000I-25400J0D01*
G01*
X9758600Y-8173000D02*
G75*
G02*
X9809400Y-8173000I25400J0D01*
G01*
X9809400Y-8300000D02*
G75*
G02*
X9758600Y-8300000I-25400J0D01*
G01*
X9758600Y-8300000D02*
G75*
G02*
X9809400Y-8300000I25400J0D01*
G01*
X9885600Y-5101500D02*
G75*
G02*
X9834800Y-5101500I-25400J0D01*
G01*
X9834800Y-5101500D02*
G75*
G02*
X9885600Y-5101500I25400J0D01*
G01*
X9885600Y-7601500D02*
G75*
G02*
X9834800Y-7601500I-25400J0D01*
G01*
X9834800Y-7601500D02*
G75*
G02*
X9885600Y-7601500I25400J0D01*
G01*
X10063400Y-5673000D02*
G75*
G02*
X10012600Y-5673000I-25400J0D01*
G01*
X10012600Y-5673000D02*
G75*
G02*
X10063400Y-5673000I25400J0D01*
G01*
X10063400Y-5800000D02*
G75*
G02*
X10012600Y-5800000I-25400J0D01*
G01*
X10012600Y-5800000D02*
G75*
G02*
X10063400Y-5800000I25400J0D01*
G01*
X10063400Y-8173000D02*
G75*
G02*
X10012600Y-8173000I-25400J0D01*
G01*
X10012600Y-8173000D02*
G75*
G02*
X10063400Y-8173000I25400J0D01*
G01*
X10063400Y-8300000D02*
G75*
G02*
X10012600Y-8300000I-25400J0D01*
G01*
X10012600Y-8300000D02*
G75*
G02*
X10063400Y-8300000I25400J0D01*
G01*
X10241200Y-5101500D02*
G75*
G02*
X10190400Y-5101500I-25400J0D01*
G01*
X10190400Y-5101500D02*
G75*
G02*
X10241200Y-5101500I25400J0D01*
G01*
X10241200Y-6371500D02*
G75*
G02*
X10190400Y-6371500I-25400J0D01*
G01*
X10190400Y-6371500D02*
G75*
G02*
X10241200Y-6371500I25400J0D01*
G01*
X10241200Y-7601500D02*
G75*
G02*
X10190400Y-7601500I-25400J0D01*
G01*
X10190400Y-7601500D02*
G75*
G02*
X10241200Y-7601500I25400J0D01*
G01*
X10241200Y-8871500D02*
G75*
G02*
X10190400Y-8871500I-25400J0D01*
G01*
X10190400Y-8871500D02*
G75*
G02*
X10241200Y-8871500I25400J0D01*
G01*
X10317400Y-5673000D02*
G75*
G02*
X10266600Y-5673000I-25400J0D01*
G01*
X10266600Y-5673000D02*
G75*
G02*
X10317400Y-5673000I25400J0D01*
G01*
X10317400Y-5800000D02*
G75*
G02*
X10266600Y-5800000I-25400J0D01*
G01*
X10266600Y-5800000D02*
G75*
G02*
X10317400Y-5800000I25400J0D01*
G01*
X10317400Y-8173000D02*
G75*
G02*
X10266600Y-8173000I-25400J0D01*
G01*
X10266600Y-8173000D02*
G75*
G02*
X10317400Y-8173000I25400J0D01*
G01*
X10317400Y-8300000D02*
G75*
G02*
X10266600Y-8300000I-25400J0D01*
G01*
X10266600Y-8300000D02*
G75*
G02*
X10317400Y-8300000I25400J0D01*
G01*
X10393600Y-5101500D02*
G75*
G02*
X10342800Y-5101500I-25400J0D01*
G01*
X10342800Y-5101500D02*
G75*
G02*
X10393600Y-5101500I25400J0D01*
G01*
X10393600Y-6371500D02*
G75*
G02*
X10342800Y-6371500I-25400J0D01*
G01*
X10342800Y-6371500D02*
G75*
G02*
X10393600Y-6371500I25400J0D01*
G01*
X10393600Y-7601500D02*
G75*
G02*
X10342800Y-7601500I-25400J0D01*
G01*
X10342800Y-7601500D02*
G75*
G02*
X10393600Y-7601500I25400J0D01*
G01*
X10393600Y-8871500D02*
G75*
G02*
X10342800Y-8871500I-25400J0D01*
G01*
X10342800Y-8871500D02*
G75*
G02*
X10393600Y-8871500I25400J0D01*
G01*
X10571400Y-5673000D02*
G75*
G02*
X10520600Y-5673000I-25400J0D01*
G01*
X10520600Y-5673000D02*
G75*
G02*
X10571400Y-5673000I25400J0D01*
G01*
X10571400Y-5800000D02*
G75*
G02*
X10520600Y-5800000I-25400J0D01*
G01*
X10520600Y-5800000D02*
G75*
G02*
X10571400Y-5800000I25400J0D01*
G01*
X10571400Y-8173000D02*
G75*
G02*
X10520600Y-8173000I-25400J0D01*
G01*
X10520600Y-8173000D02*
G75*
G02*
X10571400Y-8173000I25400J0D01*
G01*
X10571400Y-8300000D02*
G75*
G02*
X10520600Y-8300000I-25400J0D01*
G01*
X10520600Y-8300000D02*
G75*
G02*
X10571400Y-8300000I25400J0D01*
G01*
X10749200Y-5101500D02*
G75*
G02*
X10698400Y-5101500I-25400J0D01*
G01*
X10698400Y-5101500D02*
G75*
G02*
X10749200Y-5101500I25400J0D01*
G01*
X10749200Y-6371500D02*
G75*
G02*
X10698400Y-6371500I-25400J0D01*
G01*
X10698400Y-6371500D02*
G75*
G02*
X10749200Y-6371500I25400J0D01*
G01*
X10749200Y-7601500D02*
G75*
G02*
X10698400Y-7601500I-25400J0D01*
G01*
X10698400Y-7601500D02*
G75*
G02*
X10749200Y-7601500I25400J0D01*
G01*
X10749200Y-8871500D02*
G75*
G02*
X10698400Y-8871500I-25400J0D01*
G01*
X10698400Y-8871500D02*
G75*
G02*
X10749200Y-8871500I25400J0D01*
G01*
X10825400Y-5673000D02*
G75*
G02*
X10774600Y-5673000I-25400J0D01*
G01*
X10774600Y-5673000D02*
G75*
G02*
X10825400Y-5673000I25400J0D01*
G01*
X10825400Y-5800000D02*
G75*
G02*
X10774600Y-5800000I-25400J0D01*
G01*
X10774600Y-5800000D02*
G75*
G02*
X10825400Y-5800000I25400J0D01*
G01*
X10825400Y-8173000D02*
G75*
G02*
X10774600Y-8173000I-25400J0D01*
G01*
X10774600Y-8173000D02*
G75*
G02*
X10825400Y-8173000I25400J0D01*
G01*
X10825400Y-8300000D02*
G75*
G02*
X10774600Y-8300000I-25400J0D01*
G01*
X10774600Y-8300000D02*
G75*
G02*
X10825400Y-8300000I25400J0D01*
G01*
X10901600Y-5101500D02*
G75*
G02*
X10850800Y-5101500I-25400J0D01*
G01*
X10850800Y-5101500D02*
G75*
G02*
X10901600Y-5101500I25400J0D01*
G01*
X10901600Y-6371500D02*
G75*
G02*
X10850800Y-6371500I-25400J0D01*
G01*
X10850800Y-6371500D02*
G75*
G02*
X10901600Y-6371500I25400J0D01*
G01*
X10901600Y-7601500D02*
G75*
G02*
X10850800Y-7601500I-25400J0D01*
G01*
X10850800Y-7601500D02*
G75*
G02*
X10901600Y-7601500I25400J0D01*
G01*
X10901600Y-8871500D02*
G75*
G02*
X10850800Y-8871500I-25400J0D01*
G01*
X10850800Y-8871500D02*
G75*
G02*
X10901600Y-8871500I25400J0D01*
G01*
X11079400Y-5673000D02*
G75*
G02*
X11028600Y-5673000I-25400J0D01*
G01*
X11028600Y-5673000D02*
G75*
G02*
X11079400Y-5673000I25400J0D01*
G01*
X11079400Y-5800000D02*
G75*
G02*
X11028600Y-5800000I-25400J0D01*
G01*
X11028600Y-5800000D02*
G75*
G02*
X11079400Y-5800000I25400J0D01*
G01*
X11079400Y-8173000D02*
G75*
G02*
X11028600Y-8173000I-25400J0D01*
G01*
X11028600Y-8173000D02*
G75*
G02*
X11079400Y-8173000I25400J0D01*
G01*
X11079400Y-8300000D02*
G75*
G02*
X11028600Y-8300000I-25400J0D01*
G01*
X11028600Y-8300000D02*
G75*
G02*
X11079400Y-8300000I25400J0D01*
G01*
X11257200Y-6371500D02*
G75*
G02*
X11206400Y-6371500I-25400J0D01*
G01*
X11206400Y-6371500D02*
G75*
G02*
X11257200Y-6371500I25400J0D01*
G01*
X11257200Y-8871500D02*
G75*
G02*
X11206400Y-8871500I-25400J0D01*
G01*
X11206400Y-8871500D02*
G75*
G02*
X11257200Y-8871500I25400J0D01*
G01*
X11333400Y-5673000D02*
G75*
G02*
X11282600Y-5673000I-25400J0D01*
G01*
X11282600Y-5673000D02*
G75*
G02*
X11333400Y-5673000I25400J0D01*
G01*
X11333400Y-5800000D02*
G75*
G02*
X11282600Y-5800000I-25400J0D01*
G01*
X11282600Y-5800000D02*
G75*
G02*
X11333400Y-5800000I25400J0D01*
G01*
X11333400Y-8173000D02*
G75*
G02*
X11282600Y-8173000I-25400J0D01*
G01*
X11282600Y-8173000D02*
G75*
G02*
X11333400Y-8173000I25400J0D01*
G01*
X11333400Y-8300000D02*
G75*
G02*
X11282600Y-8300000I-25400J0D01*
G01*
X11282600Y-8300000D02*
G75*
G02*
X11333400Y-8300000I25400J0D01*
G01*
X11409600Y-6371500D02*
G75*
G02*
X11358800Y-6371500I-25400J0D01*
G01*
X11358800Y-6371500D02*
G75*
G02*
X11409600Y-6371500I25400J0D01*
G01*
X11409600Y-8871500D02*
G75*
G02*
X11358800Y-8871500I-25400J0D01*
G01*
X11358800Y-8871500D02*
G75*
G02*
X11409600Y-8871500I25400J0D01*
G01*
X8800000Y-6120000D02*
X8800000Y-6180000D01*
X8770000Y-6150000D02*
X8830000Y-6150000D01*
X8800000Y-6650000D02*
X8800000Y-6710000D01*
X8770000Y-6680000D02*
X8830000Y-6680000D01*
X8800000Y-8620000D02*
X8800000Y-8680000D01*
X8770000Y-8650000D02*
X8830000Y-8650000D01*
X8800000Y-9150000D02*
X8800000Y-9210000D01*
X8770000Y-9180000D02*
X8830000Y-9180000D01*
X10470000Y-6670000D02*
X10470000Y-6730000D01*
X10440000Y-6700000D02*
X10500000Y-6700000D01*
X10470000Y-9170000D02*
X10470000Y-9230000D01*
X10440000Y-9200000D02*
X10500000Y-9200000D01*
X12200000Y-5870000D02*
X12200000Y-5930000D01*
X12170000Y-5900000D02*
X12230000Y-5900000D01*
X12200000Y-6650000D02*
X12200000Y-6710000D01*
X12170000Y-6680000D02*
X12230000Y-6680000D01*
X12200000Y-8370000D02*
X12200000Y-8430000D01*
X12170000Y-8400000D02*
X12230000Y-8400000D01*
X12200000Y-9150000D02*
X12200000Y-9210000D01*
X12170000Y-9180000D02*
X12230000Y-9180000D01*
D11*
X8758277Y-9813984D02*
X8758277Y-9613984D01*
X8758277Y-9613984D02*
X8805896Y-9613984D01*
X8805896Y-9613984D02*
X8834467Y-9623508D01*
X8834467Y-9623508D02*
X8853515Y-9642555D01*
X8853515Y-9642555D02*
X8863039Y-9661603D01*
X8863039Y-9661603D02*
X8872563Y-9699698D01*
X8872563Y-9699698D02*
X8872563Y-9728270D01*
X8872563Y-9728270D02*
X8863039Y-9766365D01*
X8863039Y-9766365D02*
X8853515Y-9785412D01*
X8853515Y-9785412D02*
X8834467Y-9804460D01*
X8834467Y-9804460D02*
X8805896Y-9813984D01*
X8805896Y-9813984D02*
X8758277Y-9813984D01*
X8958277Y-9813984D02*
X8958277Y-9680650D01*
X8958277Y-9718746D02*
X8967801Y-9699698D01*
X8967801Y-9699698D02*
X8977324Y-9690174D01*
X8977324Y-9690174D02*
X8996372Y-9680650D01*
X8996372Y-9680650D02*
X9015420Y-9680650D01*
X9082086Y-9813984D02*
X9082086Y-9680650D01*
X9082086Y-9613984D02*
X9072563Y-9623508D01*
X9072563Y-9623508D02*
X9082086Y-9633031D01*
X9082086Y-9633031D02*
X9091610Y-9623508D01*
X9091610Y-9623508D02*
X9082086Y-9613984D01*
X9082086Y-9613984D02*
X9082086Y-9633031D01*
X9205896Y-9813984D02*
X9186848Y-9804460D01*
X9186848Y-9804460D02*
X9177324Y-9785412D01*
X9177324Y-9785412D02*
X9177324Y-9613984D01*
X9310658Y-9813984D02*
X9291610Y-9804460D01*
X9291610Y-9804460D02*
X9282086Y-9785412D01*
X9282086Y-9785412D02*
X9282086Y-9613984D01*
X9539229Y-9813984D02*
X9539229Y-9613984D01*
X9539229Y-9613984D02*
X9605896Y-9756841D01*
X9605896Y-9756841D02*
X9672563Y-9613984D01*
X9672563Y-9613984D02*
X9672563Y-9813984D01*
X9853515Y-9813984D02*
X9853515Y-9709222D01*
X9853515Y-9709222D02*
X9843991Y-9690174D01*
X9843991Y-9690174D02*
X9824944Y-9680650D01*
X9824944Y-9680650D02*
X9786848Y-9680650D01*
X9786848Y-9680650D02*
X9767801Y-9690174D01*
X9853515Y-9804460D02*
X9834467Y-9813984D01*
X9834467Y-9813984D02*
X9786848Y-9813984D01*
X9786848Y-9813984D02*
X9767801Y-9804460D01*
X9767801Y-9804460D02*
X9758277Y-9785412D01*
X9758277Y-9785412D02*
X9758277Y-9766365D01*
X9758277Y-9766365D02*
X9767801Y-9747317D01*
X9767801Y-9747317D02*
X9786848Y-9737793D01*
X9786848Y-9737793D02*
X9834467Y-9737793D01*
X9834467Y-9737793D02*
X9853515Y-9728270D01*
X9948753Y-9680650D02*
X9948753Y-9880650D01*
X9948753Y-9690174D02*
X9967801Y-9680650D01*
X9967801Y-9680650D02*
X10005896Y-9680650D01*
X10005896Y-9680650D02*
X10024944Y-9690174D01*
X10024944Y-9690174D02*
X10034467Y-9699698D01*
X10034467Y-9699698D02*
X10043991Y-9718746D01*
X10043991Y-9718746D02*
X10043991Y-9775889D01*
X10043991Y-9775889D02*
X10034467Y-9794936D01*
X10034467Y-9794936D02*
X10024944Y-9804460D01*
X10024944Y-9804460D02*
X10005896Y-9813984D01*
X10005896Y-9813984D02*
X9967801Y-9813984D01*
X9967801Y-9813984D02*
X9948753Y-9804460D01*
X10129705Y-9794936D02*
X10139229Y-9804460D01*
X10139229Y-9804460D02*
X10129705Y-9813984D01*
X10129705Y-9813984D02*
X10120182Y-9804460D01*
X10120182Y-9804460D02*
X10129705Y-9794936D01*
X10129705Y-9794936D02*
X10129705Y-9813984D01*
X10129705Y-9690174D02*
X10139229Y-9699698D01*
X10139229Y-9699698D02*
X10129705Y-9709222D01*
X10129705Y-9709222D02*
X10120182Y-9699698D01*
X10120182Y-9699698D02*
X10129705Y-9690174D01*
X10129705Y-9690174D02*
X10129705Y-9709222D01*
D12*
X8467500Y-10127500D02*
X8497500Y-10157500D01*
X8497500Y-10127500D02*
X8467500Y-10157500D01*
D11*
X8796372Y-10033984D02*
X8815420Y-10033984D01*
X8815420Y-10033984D02*
X8834467Y-10043508D01*
X8834467Y-10043508D02*
X8843991Y-10053031D01*
X8843991Y-10053031D02*
X8853515Y-10072079D01*
X8853515Y-10072079D02*
X8863039Y-10110174D01*
X8863039Y-10110174D02*
X8863039Y-10157793D01*
X8863039Y-10157793D02*
X8853515Y-10195889D01*
X8853515Y-10195889D02*
X8843991Y-10214936D01*
X8843991Y-10214936D02*
X8834467Y-10224460D01*
X8834467Y-10224460D02*
X8815420Y-10233984D01*
X8815420Y-10233984D02*
X8796372Y-10233984D01*
X8796372Y-10233984D02*
X8777324Y-10224460D01*
X8777324Y-10224460D02*
X8767801Y-10214936D01*
X8767801Y-10214936D02*
X8758277Y-10195889D01*
X8758277Y-10195889D02*
X8748753Y-10157793D01*
X8748753Y-10157793D02*
X8748753Y-10110174D01*
X8748753Y-10110174D02*
X8758277Y-10072079D01*
X8758277Y-10072079D02*
X8767801Y-10053031D01*
X8767801Y-10053031D02*
X8777324Y-10043508D01*
X8777324Y-10043508D02*
X8796372Y-10033984D01*
X8948753Y-10214936D02*
X8958277Y-10224460D01*
X8958277Y-10224460D02*
X8948753Y-10233984D01*
X8948753Y-10233984D02*
X8939229Y-10224460D01*
X8939229Y-10224460D02*
X8948753Y-10214936D01*
X8948753Y-10214936D02*
X8948753Y-10233984D01*
X9024944Y-10033984D02*
X9148753Y-10033984D01*
X9148753Y-10033984D02*
X9082086Y-10110174D01*
X9082086Y-10110174D02*
X9110658Y-10110174D01*
X9110658Y-10110174D02*
X9129705Y-10119698D01*
X9129705Y-10119698D02*
X9139229Y-10129222D01*
X9139229Y-10129222D02*
X9148753Y-10148270D01*
X9148753Y-10148270D02*
X9148753Y-10195889D01*
X9148753Y-10195889D02*
X9139229Y-10214936D01*
X9139229Y-10214936D02*
X9129705Y-10224460D01*
X9129705Y-10224460D02*
X9110658Y-10233984D01*
X9110658Y-10233984D02*
X9053515Y-10233984D01*
X9053515Y-10233984D02*
X9034467Y-10224460D01*
X9034467Y-10224460D02*
X9024944Y-10214936D01*
X9272563Y-10033984D02*
X9291610Y-10033984D01*
X9291610Y-10033984D02*
X9310658Y-10043508D01*
X9310658Y-10043508D02*
X9320182Y-10053031D01*
X9320182Y-10053031D02*
X9329705Y-10072079D01*
X9329705Y-10072079D02*
X9339229Y-10110174D01*
X9339229Y-10110174D02*
X9339229Y-10157793D01*
X9339229Y-10157793D02*
X9329705Y-10195889D01*
X9329705Y-10195889D02*
X9320182Y-10214936D01*
X9320182Y-10214936D02*
X9310658Y-10224460D01*
X9310658Y-10224460D02*
X9291610Y-10233984D01*
X9291610Y-10233984D02*
X9272563Y-10233984D01*
X9272563Y-10233984D02*
X9253515Y-10224460D01*
X9253515Y-10224460D02*
X9243991Y-10214936D01*
X9243991Y-10214936D02*
X9234467Y-10195889D01*
X9234467Y-10195889D02*
X9224944Y-10157793D01*
X9224944Y-10157793D02*
X9224944Y-10110174D01*
X9224944Y-10110174D02*
X9234467Y-10072079D01*
X9234467Y-10072079D02*
X9243991Y-10053031D01*
X9243991Y-10053031D02*
X9253515Y-10043508D01*
X9253515Y-10043508D02*
X9272563Y-10033984D01*
X9463039Y-10033984D02*
X9482086Y-10033984D01*
X9482086Y-10033984D02*
X9501134Y-10043508D01*
X9501134Y-10043508D02*
X9510658Y-10053031D01*
X9510658Y-10053031D02*
X9520182Y-10072079D01*
X9520182Y-10072079D02*
X9529705Y-10110174D01*
X9529705Y-10110174D02*
X9529705Y-10157793D01*
X9529705Y-10157793D02*
X9520182Y-10195889D01*
X9520182Y-10195889D02*
X9510658Y-10214936D01*
X9510658Y-10214936D02*
X9501134Y-10224460D01*
X9501134Y-10224460D02*
X9482086Y-10233984D01*
X9482086Y-10233984D02*
X9463039Y-10233984D01*
X9463039Y-10233984D02*
X9443991Y-10224460D01*
X9443991Y-10224460D02*
X9434467Y-10214936D01*
X9434467Y-10214936D02*
X9424944Y-10195889D01*
X9424944Y-10195889D02*
X9415420Y-10157793D01*
X9415420Y-10157793D02*
X9415420Y-10110174D01*
X9415420Y-10110174D02*
X9424944Y-10072079D01*
X9424944Y-10072079D02*
X9434467Y-10053031D01*
X9434467Y-10053031D02*
X9443991Y-10043508D01*
X9443991Y-10043508D02*
X9463039Y-10033984D01*
X9615420Y-10233984D02*
X9615420Y-10100650D01*
X9615420Y-10119698D02*
X9624944Y-10110174D01*
X9624944Y-10110174D02*
X9643991Y-10100650D01*
X9643991Y-10100650D02*
X9672563Y-10100650D01*
X9672563Y-10100650D02*
X9691610Y-10110174D01*
X9691610Y-10110174D02*
X9701134Y-10129222D01*
X9701134Y-10129222D02*
X9701134Y-10233984D01*
X9701134Y-10129222D02*
X9710658Y-10110174D01*
X9710658Y-10110174D02*
X9729705Y-10100650D01*
X9729705Y-10100650D02*
X9758277Y-10100650D01*
X9758277Y-10100650D02*
X9777325Y-10110174D01*
X9777325Y-10110174D02*
X9786848Y-10129222D01*
X9786848Y-10129222D02*
X9786848Y-10233984D01*
X9882086Y-10233984D02*
X9882086Y-10100650D01*
X9882086Y-10119698D02*
X9891610Y-10110174D01*
X9891610Y-10110174D02*
X9910658Y-10100650D01*
X9910658Y-10100650D02*
X9939229Y-10100650D01*
X9939229Y-10100650D02*
X9958277Y-10110174D01*
X9958277Y-10110174D02*
X9967801Y-10129222D01*
X9967801Y-10129222D02*
X9967801Y-10233984D01*
X9967801Y-10129222D02*
X9977325Y-10110174D01*
X9977325Y-10110174D02*
X9996372Y-10100650D01*
X9996372Y-10100650D02*
X10024944Y-10100650D01*
X10024944Y-10100650D02*
X10043991Y-10110174D01*
X10043991Y-10110174D02*
X10053515Y-10129222D01*
X10053515Y-10129222D02*
X10053515Y-10233984D01*
X10443991Y-10024460D02*
X10272563Y-10281603D01*
X10701134Y-10033984D02*
X10720182Y-10033984D01*
X10720182Y-10033984D02*
X10739229Y-10043508D01*
X10739229Y-10043508D02*
X10748753Y-10053031D01*
X10748753Y-10053031D02*
X10758277Y-10072079D01*
X10758277Y-10072079D02*
X10767801Y-10110174D01*
X10767801Y-10110174D02*
X10767801Y-10157793D01*
X10767801Y-10157793D02*
X10758277Y-10195889D01*
X10758277Y-10195889D02*
X10748753Y-10214936D01*
X10748753Y-10214936D02*
X10739229Y-10224460D01*
X10739229Y-10224460D02*
X10720182Y-10233984D01*
X10720182Y-10233984D02*
X10701134Y-10233984D01*
X10701134Y-10233984D02*
X10682087Y-10224460D01*
X10682087Y-10224460D02*
X10672563Y-10214936D01*
X10672563Y-10214936D02*
X10663039Y-10195889D01*
X10663039Y-10195889D02*
X10653515Y-10157793D01*
X10653515Y-10157793D02*
X10653515Y-10110174D01*
X10653515Y-10110174D02*
X10663039Y-10072079D01*
X10663039Y-10072079D02*
X10672563Y-10053031D01*
X10672563Y-10053031D02*
X10682087Y-10043508D01*
X10682087Y-10043508D02*
X10701134Y-10033984D01*
X10853515Y-10214936D02*
X10863039Y-10224460D01*
X10863039Y-10224460D02*
X10853515Y-10233984D01*
X10853515Y-10233984D02*
X10843991Y-10224460D01*
X10843991Y-10224460D02*
X10853515Y-10214936D01*
X10853515Y-10214936D02*
X10853515Y-10233984D01*
X10986848Y-10033984D02*
X11005896Y-10033984D01*
X11005896Y-10033984D02*
X11024944Y-10043508D01*
X11024944Y-10043508D02*
X11034468Y-10053031D01*
X11034468Y-10053031D02*
X11043991Y-10072079D01*
X11043991Y-10072079D02*
X11053515Y-10110174D01*
X11053515Y-10110174D02*
X11053515Y-10157793D01*
X11053515Y-10157793D02*
X11043991Y-10195889D01*
X11043991Y-10195889D02*
X11034468Y-10214936D01*
X11034468Y-10214936D02*
X11024944Y-10224460D01*
X11024944Y-10224460D02*
X11005896Y-10233984D01*
X11005896Y-10233984D02*
X10986848Y-10233984D01*
X10986848Y-10233984D02*
X10967801Y-10224460D01*
X10967801Y-10224460D02*
X10958277Y-10214936D01*
X10958277Y-10214936D02*
X10948753Y-10195889D01*
X10948753Y-10195889D02*
X10939229Y-10157793D01*
X10939229Y-10157793D02*
X10939229Y-10110174D01*
X10939229Y-10110174D02*
X10948753Y-10072079D01*
X10948753Y-10072079D02*
X10958277Y-10053031D01*
X10958277Y-10053031D02*
X10967801Y-10043508D01*
X10967801Y-10043508D02*
X10986848Y-10033984D01*
X11243991Y-10233984D02*
X11129706Y-10233984D01*
X11186848Y-10233984D02*
X11186848Y-10033984D01*
X11186848Y-10033984D02*
X11167801Y-10062555D01*
X11167801Y-10062555D02*
X11148753Y-10081603D01*
X11148753Y-10081603D02*
X11129706Y-10091127D01*
X11434467Y-10233984D02*
X11320182Y-10233984D01*
X11377325Y-10233984D02*
X11377325Y-10033984D01*
X11377325Y-10033984D02*
X11358277Y-10062555D01*
X11358277Y-10062555D02*
X11339229Y-10081603D01*
X11339229Y-10081603D02*
X11320182Y-10091127D01*
X11548753Y-10119698D02*
X11529706Y-10110174D01*
X11529706Y-10110174D02*
X11520182Y-10100650D01*
X11520182Y-10100650D02*
X11510658Y-10081603D01*
X11510658Y-10081603D02*
X11510658Y-10072079D01*
X11510658Y-10072079D02*
X11520182Y-10053031D01*
X11520182Y-10053031D02*
X11529706Y-10043508D01*
X11529706Y-10043508D02*
X11548753Y-10033984D01*
X11548753Y-10033984D02*
X11586848Y-10033984D01*
X11586848Y-10033984D02*
X11605896Y-10043508D01*
X11605896Y-10043508D02*
X11615420Y-10053031D01*
X11615420Y-10053031D02*
X11624944Y-10072079D01*
X11624944Y-10072079D02*
X11624944Y-10081603D01*
X11624944Y-10081603D02*
X11615420Y-10100650D01*
X11615420Y-10100650D02*
X11605896Y-10110174D01*
X11605896Y-10110174D02*
X11586848Y-10119698D01*
X11586848Y-10119698D02*
X11548753Y-10119698D01*
X11548753Y-10119698D02*
X11529706Y-10129222D01*
X11529706Y-10129222D02*
X11520182Y-10138746D01*
X11520182Y-10138746D02*
X11510658Y-10157793D01*
X11510658Y-10157793D02*
X11510658Y-10195889D01*
X11510658Y-10195889D02*
X11520182Y-10214936D01*
X11520182Y-10214936D02*
X11529706Y-10224460D01*
X11529706Y-10224460D02*
X11548753Y-10233984D01*
X11548753Y-10233984D02*
X11586848Y-10233984D01*
X11586848Y-10233984D02*
X11605896Y-10224460D01*
X11605896Y-10224460D02*
X11615420Y-10214936D01*
X11615420Y-10214936D02*
X11624944Y-10195889D01*
X11624944Y-10195889D02*
X11624944Y-10157793D01*
X11624944Y-10157793D02*
X11615420Y-10138746D01*
X11615420Y-10138746D02*
X11605896Y-10129222D01*
X11605896Y-10129222D02*
X11586848Y-10119698D01*
X11701134Y-10033984D02*
X11701134Y-10072079D01*
X11777325Y-10033984D02*
X11777325Y-10072079D01*
X12072563Y-10310174D02*
X12063039Y-10300650D01*
X12063039Y-10300650D02*
X12043991Y-10272079D01*
X12043991Y-10272079D02*
X12034468Y-10253031D01*
X12034468Y-10253031D02*
X12024944Y-10224460D01*
X12024944Y-10224460D02*
X12015420Y-10176841D01*
X12015420Y-10176841D02*
X12015420Y-10138746D01*
X12015420Y-10138746D02*
X12024944Y-10091127D01*
X12024944Y-10091127D02*
X12034468Y-10062555D01*
X12034468Y-10062555D02*
X12043991Y-10043508D01*
X12043991Y-10043508D02*
X12063039Y-10014936D01*
X12063039Y-10014936D02*
X12072563Y-10005412D01*
X12253515Y-10233984D02*
X12139229Y-10233984D01*
X12196372Y-10233984D02*
X12196372Y-10033984D01*
X12196372Y-10033984D02*
X12177325Y-10062555D01*
X12177325Y-10062555D02*
X12158277Y-10081603D01*
X12158277Y-10081603D02*
X12139229Y-10091127D01*
X12329706Y-10053031D02*
X12339229Y-10043508D01*
X12339229Y-10043508D02*
X12358277Y-10033984D01*
X12358277Y-10033984D02*
X12405896Y-10033984D01*
X12405896Y-10033984D02*
X12424944Y-10043508D01*
X12424944Y-10043508D02*
X12434468Y-10053031D01*
X12434468Y-10053031D02*
X12443991Y-10072079D01*
X12443991Y-10072079D02*
X12443991Y-10091127D01*
X12443991Y-10091127D02*
X12434468Y-10119698D01*
X12434468Y-10119698D02*
X12320182Y-10233984D01*
X12320182Y-10233984D02*
X12443991Y-10233984D01*
X12615420Y-10100650D02*
X12615420Y-10233984D01*
X12567801Y-10024460D02*
X12520182Y-10167317D01*
X12520182Y-10167317D02*
X12643991Y-10167317D01*
X12872563Y-10233984D02*
X12872563Y-10033984D01*
X12958277Y-10233984D02*
X12958277Y-10129222D01*
X12958277Y-10129222D02*
X12948753Y-10110174D01*
X12948753Y-10110174D02*
X12929706Y-10100650D01*
X12929706Y-10100650D02*
X12901134Y-10100650D01*
X12901134Y-10100650D02*
X12882087Y-10110174D01*
X12882087Y-10110174D02*
X12872563Y-10119698D01*
X13082087Y-10233984D02*
X13063039Y-10224460D01*
X13063039Y-10224460D02*
X13053515Y-10214936D01*
X13053515Y-10214936D02*
X13043991Y-10195889D01*
X13043991Y-10195889D02*
X13043991Y-10138746D01*
X13043991Y-10138746D02*
X13053515Y-10119698D01*
X13053515Y-10119698D02*
X13063039Y-10110174D01*
X13063039Y-10110174D02*
X13082087Y-10100650D01*
X13082087Y-10100650D02*
X13110658Y-10100650D01*
X13110658Y-10100650D02*
X13129706Y-10110174D01*
X13129706Y-10110174D02*
X13139230Y-10119698D01*
X13139230Y-10119698D02*
X13148753Y-10138746D01*
X13148753Y-10138746D02*
X13148753Y-10195889D01*
X13148753Y-10195889D02*
X13139230Y-10214936D01*
X13139230Y-10214936D02*
X13129706Y-10224460D01*
X13129706Y-10224460D02*
X13110658Y-10233984D01*
X13110658Y-10233984D02*
X13082087Y-10233984D01*
X13263039Y-10233984D02*
X13243991Y-10224460D01*
X13243991Y-10224460D02*
X13234468Y-10205412D01*
X13234468Y-10205412D02*
X13234468Y-10033984D01*
X13415420Y-10224460D02*
X13396372Y-10233984D01*
X13396372Y-10233984D02*
X13358277Y-10233984D01*
X13358277Y-10233984D02*
X13339230Y-10224460D01*
X13339230Y-10224460D02*
X13329706Y-10205412D01*
X13329706Y-10205412D02*
X13329706Y-10129222D01*
X13329706Y-10129222D02*
X13339230Y-10110174D01*
X13339230Y-10110174D02*
X13358277Y-10100650D01*
X13358277Y-10100650D02*
X13396372Y-10100650D01*
X13396372Y-10100650D02*
X13415420Y-10110174D01*
X13415420Y-10110174D02*
X13424944Y-10129222D01*
X13424944Y-10129222D02*
X13424944Y-10148270D01*
X13424944Y-10148270D02*
X13329706Y-10167317D01*
X13501134Y-10224460D02*
X13520182Y-10233984D01*
X13520182Y-10233984D02*
X13558277Y-10233984D01*
X13558277Y-10233984D02*
X13577325Y-10224460D01*
X13577325Y-10224460D02*
X13586849Y-10205412D01*
X13586849Y-10205412D02*
X13586849Y-10195889D01*
X13586849Y-10195889D02*
X13577325Y-10176841D01*
X13577325Y-10176841D02*
X13558277Y-10167317D01*
X13558277Y-10167317D02*
X13529706Y-10167317D01*
X13529706Y-10167317D02*
X13510658Y-10157793D01*
X13510658Y-10157793D02*
X13501134Y-10138746D01*
X13501134Y-10138746D02*
X13501134Y-10129222D01*
X13501134Y-10129222D02*
X13510658Y-10110174D01*
X13510658Y-10110174D02*
X13529706Y-10100650D01*
X13529706Y-10100650D02*
X13558277Y-10100650D01*
X13558277Y-10100650D02*
X13577325Y-10110174D01*
X13653515Y-10310174D02*
X13663039Y-10300650D01*
X13663039Y-10300650D02*
X13682087Y-10272079D01*
X13682087Y-10272079D02*
X13691611Y-10253031D01*
X13691611Y-10253031D02*
X13701134Y-10224460D01*
X13701134Y-10224460D02*
X13710658Y-10176841D01*
X13710658Y-10176841D02*
X13710658Y-10138746D01*
X13710658Y-10138746D02*
X13701134Y-10091127D01*
X13701134Y-10091127D02*
X13691611Y-10062555D01*
X13691611Y-10062555D02*
X13682087Y-10043508D01*
X13682087Y-10043508D02*
X13663039Y-10014936D01*
X13663039Y-10014936D02*
X13653515Y-10005412D01*
D12*
X8497500Y-10406500D02*
G75*
G02*
X8446700Y-10406500I-25400J0D01*
G01*
X8446700Y-10406500D02*
G75*
G02*
X8497500Y-10406500I25400J0D01*
G01*
D11*
X8796372Y-10297984D02*
X8815420Y-10297984D01*
X8815420Y-10297984D02*
X8834467Y-10307508D01*
X8834467Y-10307508D02*
X8843991Y-10317031D01*
X8843991Y-10317031D02*
X8853515Y-10336079D01*
X8853515Y-10336079D02*
X8863039Y-10374174D01*
X8863039Y-10374174D02*
X8863039Y-10421793D01*
X8863039Y-10421793D02*
X8853515Y-10459889D01*
X8853515Y-10459889D02*
X8843991Y-10478936D01*
X8843991Y-10478936D02*
X8834467Y-10488460D01*
X8834467Y-10488460D02*
X8815420Y-10497984D01*
X8815420Y-10497984D02*
X8796372Y-10497984D01*
X8796372Y-10497984D02*
X8777324Y-10488460D01*
X8777324Y-10488460D02*
X8767801Y-10478936D01*
X8767801Y-10478936D02*
X8758277Y-10459889D01*
X8758277Y-10459889D02*
X8748753Y-10421793D01*
X8748753Y-10421793D02*
X8748753Y-10374174D01*
X8748753Y-10374174D02*
X8758277Y-10336079D01*
X8758277Y-10336079D02*
X8767801Y-10317031D01*
X8767801Y-10317031D02*
X8777324Y-10307508D01*
X8777324Y-10307508D02*
X8796372Y-10297984D01*
X8948753Y-10478936D02*
X8958277Y-10488460D01*
X8958277Y-10488460D02*
X8948753Y-10497984D01*
X8948753Y-10497984D02*
X8939229Y-10488460D01*
X8939229Y-10488460D02*
X8948753Y-10478936D01*
X8948753Y-10478936D02*
X8948753Y-10497984D01*
X9139229Y-10297984D02*
X9043991Y-10297984D01*
X9043991Y-10297984D02*
X9034467Y-10393222D01*
X9034467Y-10393222D02*
X9043991Y-10383698D01*
X9043991Y-10383698D02*
X9063039Y-10374174D01*
X9063039Y-10374174D02*
X9110658Y-10374174D01*
X9110658Y-10374174D02*
X9129705Y-10383698D01*
X9129705Y-10383698D02*
X9139229Y-10393222D01*
X9139229Y-10393222D02*
X9148753Y-10412270D01*
X9148753Y-10412270D02*
X9148753Y-10459889D01*
X9148753Y-10459889D02*
X9139229Y-10478936D01*
X9139229Y-10478936D02*
X9129705Y-10488460D01*
X9129705Y-10488460D02*
X9110658Y-10497984D01*
X9110658Y-10497984D02*
X9063039Y-10497984D01*
X9063039Y-10497984D02*
X9043991Y-10488460D01*
X9043991Y-10488460D02*
X9034467Y-10478936D01*
X9272563Y-10297984D02*
X9291610Y-10297984D01*
X9291610Y-10297984D02*
X9310658Y-10307508D01*
X9310658Y-10307508D02*
X9320182Y-10317031D01*
X9320182Y-10317031D02*
X9329705Y-10336079D01*
X9329705Y-10336079D02*
X9339229Y-10374174D01*
X9339229Y-10374174D02*
X9339229Y-10421793D01*
X9339229Y-10421793D02*
X9329705Y-10459889D01*
X9329705Y-10459889D02*
X9320182Y-10478936D01*
X9320182Y-10478936D02*
X9310658Y-10488460D01*
X9310658Y-10488460D02*
X9291610Y-10497984D01*
X9291610Y-10497984D02*
X9272563Y-10497984D01*
X9272563Y-10497984D02*
X9253515Y-10488460D01*
X9253515Y-10488460D02*
X9243991Y-10478936D01*
X9243991Y-10478936D02*
X9234467Y-10459889D01*
X9234467Y-10459889D02*
X9224944Y-10421793D01*
X9224944Y-10421793D02*
X9224944Y-10374174D01*
X9224944Y-10374174D02*
X9234467Y-10336079D01*
X9234467Y-10336079D02*
X9243991Y-10317031D01*
X9243991Y-10317031D02*
X9253515Y-10307508D01*
X9253515Y-10307508D02*
X9272563Y-10297984D01*
X9453515Y-10383698D02*
X9434467Y-10374174D01*
X9434467Y-10374174D02*
X9424944Y-10364650D01*
X9424944Y-10364650D02*
X9415420Y-10345603D01*
X9415420Y-10345603D02*
X9415420Y-10336079D01*
X9415420Y-10336079D02*
X9424944Y-10317031D01*
X9424944Y-10317031D02*
X9434467Y-10307508D01*
X9434467Y-10307508D02*
X9453515Y-10297984D01*
X9453515Y-10297984D02*
X9491610Y-10297984D01*
X9491610Y-10297984D02*
X9510658Y-10307508D01*
X9510658Y-10307508D02*
X9520182Y-10317031D01*
X9520182Y-10317031D02*
X9529705Y-10336079D01*
X9529705Y-10336079D02*
X9529705Y-10345603D01*
X9529705Y-10345603D02*
X9520182Y-10364650D01*
X9520182Y-10364650D02*
X9510658Y-10374174D01*
X9510658Y-10374174D02*
X9491610Y-10383698D01*
X9491610Y-10383698D02*
X9453515Y-10383698D01*
X9453515Y-10383698D02*
X9434467Y-10393222D01*
X9434467Y-10393222D02*
X9424944Y-10402746D01*
X9424944Y-10402746D02*
X9415420Y-10421793D01*
X9415420Y-10421793D02*
X9415420Y-10459889D01*
X9415420Y-10459889D02*
X9424944Y-10478936D01*
X9424944Y-10478936D02*
X9434467Y-10488460D01*
X9434467Y-10488460D02*
X9453515Y-10497984D01*
X9453515Y-10497984D02*
X9491610Y-10497984D01*
X9491610Y-10497984D02*
X9510658Y-10488460D01*
X9510658Y-10488460D02*
X9520182Y-10478936D01*
X9520182Y-10478936D02*
X9529705Y-10459889D01*
X9529705Y-10459889D02*
X9529705Y-10421793D01*
X9529705Y-10421793D02*
X9520182Y-10402746D01*
X9520182Y-10402746D02*
X9510658Y-10393222D01*
X9510658Y-10393222D02*
X9491610Y-10383698D01*
X9615420Y-10497984D02*
X9615420Y-10364650D01*
X9615420Y-10383698D02*
X9624944Y-10374174D01*
X9624944Y-10374174D02*
X9643991Y-10364650D01*
X9643991Y-10364650D02*
X9672563Y-10364650D01*
X9672563Y-10364650D02*
X9691610Y-10374174D01*
X9691610Y-10374174D02*
X9701134Y-10393222D01*
X9701134Y-10393222D02*
X9701134Y-10497984D01*
X9701134Y-10393222D02*
X9710658Y-10374174D01*
X9710658Y-10374174D02*
X9729705Y-10364650D01*
X9729705Y-10364650D02*
X9758277Y-10364650D01*
X9758277Y-10364650D02*
X9777325Y-10374174D01*
X9777325Y-10374174D02*
X9786848Y-10393222D01*
X9786848Y-10393222D02*
X9786848Y-10497984D01*
X9882086Y-10497984D02*
X9882086Y-10364650D01*
X9882086Y-10383698D02*
X9891610Y-10374174D01*
X9891610Y-10374174D02*
X9910658Y-10364650D01*
X9910658Y-10364650D02*
X9939229Y-10364650D01*
X9939229Y-10364650D02*
X9958277Y-10374174D01*
X9958277Y-10374174D02*
X9967801Y-10393222D01*
X9967801Y-10393222D02*
X9967801Y-10497984D01*
X9967801Y-10393222D02*
X9977325Y-10374174D01*
X9977325Y-10374174D02*
X9996372Y-10364650D01*
X9996372Y-10364650D02*
X10024944Y-10364650D01*
X10024944Y-10364650D02*
X10043991Y-10374174D01*
X10043991Y-10374174D02*
X10053515Y-10393222D01*
X10053515Y-10393222D02*
X10053515Y-10497984D01*
X10443991Y-10288460D02*
X10272563Y-10545603D01*
X10701134Y-10297984D02*
X10720182Y-10297984D01*
X10720182Y-10297984D02*
X10739229Y-10307508D01*
X10739229Y-10307508D02*
X10748753Y-10317031D01*
X10748753Y-10317031D02*
X10758277Y-10336079D01*
X10758277Y-10336079D02*
X10767801Y-10374174D01*
X10767801Y-10374174D02*
X10767801Y-10421793D01*
X10767801Y-10421793D02*
X10758277Y-10459889D01*
X10758277Y-10459889D02*
X10748753Y-10478936D01*
X10748753Y-10478936D02*
X10739229Y-10488460D01*
X10739229Y-10488460D02*
X10720182Y-10497984D01*
X10720182Y-10497984D02*
X10701134Y-10497984D01*
X10701134Y-10497984D02*
X10682087Y-10488460D01*
X10682087Y-10488460D02*
X10672563Y-10478936D01*
X10672563Y-10478936D02*
X10663039Y-10459889D01*
X10663039Y-10459889D02*
X10653515Y-10421793D01*
X10653515Y-10421793D02*
X10653515Y-10374174D01*
X10653515Y-10374174D02*
X10663039Y-10336079D01*
X10663039Y-10336079D02*
X10672563Y-10317031D01*
X10672563Y-10317031D02*
X10682087Y-10307508D01*
X10682087Y-10307508D02*
X10701134Y-10297984D01*
X10853515Y-10478936D02*
X10863039Y-10488460D01*
X10863039Y-10488460D02*
X10853515Y-10497984D01*
X10853515Y-10497984D02*
X10843991Y-10488460D01*
X10843991Y-10488460D02*
X10853515Y-10478936D01*
X10853515Y-10478936D02*
X10853515Y-10497984D01*
X10986848Y-10297984D02*
X11005896Y-10297984D01*
X11005896Y-10297984D02*
X11024944Y-10307508D01*
X11024944Y-10307508D02*
X11034468Y-10317031D01*
X11034468Y-10317031D02*
X11043991Y-10336079D01*
X11043991Y-10336079D02*
X11053515Y-10374174D01*
X11053515Y-10374174D02*
X11053515Y-10421793D01*
X11053515Y-10421793D02*
X11043991Y-10459889D01*
X11043991Y-10459889D02*
X11034468Y-10478936D01*
X11034468Y-10478936D02*
X11024944Y-10488460D01*
X11024944Y-10488460D02*
X11005896Y-10497984D01*
X11005896Y-10497984D02*
X10986848Y-10497984D01*
X10986848Y-10497984D02*
X10967801Y-10488460D01*
X10967801Y-10488460D02*
X10958277Y-10478936D01*
X10958277Y-10478936D02*
X10948753Y-10459889D01*
X10948753Y-10459889D02*
X10939229Y-10421793D01*
X10939229Y-10421793D02*
X10939229Y-10374174D01*
X10939229Y-10374174D02*
X10948753Y-10336079D01*
X10948753Y-10336079D02*
X10958277Y-10317031D01*
X10958277Y-10317031D02*
X10967801Y-10307508D01*
X10967801Y-10307508D02*
X10986848Y-10297984D01*
X11129706Y-10317031D02*
X11139229Y-10307508D01*
X11139229Y-10307508D02*
X11158277Y-10297984D01*
X11158277Y-10297984D02*
X11205896Y-10297984D01*
X11205896Y-10297984D02*
X11224944Y-10307508D01*
X11224944Y-10307508D02*
X11234467Y-10317031D01*
X11234467Y-10317031D02*
X11243991Y-10336079D01*
X11243991Y-10336079D02*
X11243991Y-10355127D01*
X11243991Y-10355127D02*
X11234467Y-10383698D01*
X11234467Y-10383698D02*
X11120182Y-10497984D01*
X11120182Y-10497984D02*
X11243991Y-10497984D01*
X11367801Y-10297984D02*
X11386848Y-10297984D01*
X11386848Y-10297984D02*
X11405896Y-10307508D01*
X11405896Y-10307508D02*
X11415420Y-10317031D01*
X11415420Y-10317031D02*
X11424944Y-10336079D01*
X11424944Y-10336079D02*
X11434467Y-10374174D01*
X11434467Y-10374174D02*
X11434467Y-10421793D01*
X11434467Y-10421793D02*
X11424944Y-10459889D01*
X11424944Y-10459889D02*
X11415420Y-10478936D01*
X11415420Y-10478936D02*
X11405896Y-10488460D01*
X11405896Y-10488460D02*
X11386848Y-10497984D01*
X11386848Y-10497984D02*
X11367801Y-10497984D01*
X11367801Y-10497984D02*
X11348753Y-10488460D01*
X11348753Y-10488460D02*
X11339229Y-10478936D01*
X11339229Y-10478936D02*
X11329706Y-10459889D01*
X11329706Y-10459889D02*
X11320182Y-10421793D01*
X11320182Y-10421793D02*
X11320182Y-10374174D01*
X11320182Y-10374174D02*
X11329706Y-10336079D01*
X11329706Y-10336079D02*
X11339229Y-10317031D01*
X11339229Y-10317031D02*
X11348753Y-10307508D01*
X11348753Y-10307508D02*
X11367801Y-10297984D01*
X11558277Y-10297984D02*
X11577325Y-10297984D01*
X11577325Y-10297984D02*
X11596372Y-10307508D01*
X11596372Y-10307508D02*
X11605896Y-10317031D01*
X11605896Y-10317031D02*
X11615420Y-10336079D01*
X11615420Y-10336079D02*
X11624944Y-10374174D01*
X11624944Y-10374174D02*
X11624944Y-10421793D01*
X11624944Y-10421793D02*
X11615420Y-10459889D01*
X11615420Y-10459889D02*
X11605896Y-10478936D01*
X11605896Y-10478936D02*
X11596372Y-10488460D01*
X11596372Y-10488460D02*
X11577325Y-10497984D01*
X11577325Y-10497984D02*
X11558277Y-10497984D01*
X11558277Y-10497984D02*
X11539229Y-10488460D01*
X11539229Y-10488460D02*
X11529706Y-10478936D01*
X11529706Y-10478936D02*
X11520182Y-10459889D01*
X11520182Y-10459889D02*
X11510658Y-10421793D01*
X11510658Y-10421793D02*
X11510658Y-10374174D01*
X11510658Y-10374174D02*
X11520182Y-10336079D01*
X11520182Y-10336079D02*
X11529706Y-10317031D01*
X11529706Y-10317031D02*
X11539229Y-10307508D01*
X11539229Y-10307508D02*
X11558277Y-10297984D01*
X11701134Y-10297984D02*
X11701134Y-10336079D01*
X11777325Y-10297984D02*
X11777325Y-10336079D01*
X12072563Y-10574174D02*
X12063039Y-10564650D01*
X12063039Y-10564650D02*
X12043991Y-10536079D01*
X12043991Y-10536079D02*
X12034468Y-10517031D01*
X12034468Y-10517031D02*
X12024944Y-10488460D01*
X12024944Y-10488460D02*
X12015420Y-10440841D01*
X12015420Y-10440841D02*
X12015420Y-10402746D01*
X12015420Y-10402746D02*
X12024944Y-10355127D01*
X12024944Y-10355127D02*
X12034468Y-10326555D01*
X12034468Y-10326555D02*
X12043991Y-10307508D01*
X12043991Y-10307508D02*
X12063039Y-10278936D01*
X12063039Y-10278936D02*
X12072563Y-10269412D01*
X12243991Y-10297984D02*
X12148753Y-10297984D01*
X12148753Y-10297984D02*
X12139229Y-10393222D01*
X12139229Y-10393222D02*
X12148753Y-10383698D01*
X12148753Y-10383698D02*
X12167801Y-10374174D01*
X12167801Y-10374174D02*
X12215420Y-10374174D01*
X12215420Y-10374174D02*
X12234468Y-10383698D01*
X12234468Y-10383698D02*
X12243991Y-10393222D01*
X12243991Y-10393222D02*
X12253515Y-10412270D01*
X12253515Y-10412270D02*
X12253515Y-10459889D01*
X12253515Y-10459889D02*
X12243991Y-10478936D01*
X12243991Y-10478936D02*
X12234468Y-10488460D01*
X12234468Y-10488460D02*
X12215420Y-10497984D01*
X12215420Y-10497984D02*
X12167801Y-10497984D01*
X12167801Y-10497984D02*
X12148753Y-10488460D01*
X12148753Y-10488460D02*
X12139229Y-10478936D01*
X12329706Y-10317031D02*
X12339229Y-10307508D01*
X12339229Y-10307508D02*
X12358277Y-10297984D01*
X12358277Y-10297984D02*
X12405896Y-10297984D01*
X12405896Y-10297984D02*
X12424944Y-10307508D01*
X12424944Y-10307508D02*
X12434468Y-10317031D01*
X12434468Y-10317031D02*
X12443991Y-10336079D01*
X12443991Y-10336079D02*
X12443991Y-10355127D01*
X12443991Y-10355127D02*
X12434468Y-10383698D01*
X12434468Y-10383698D02*
X12320182Y-10497984D01*
X12320182Y-10497984D02*
X12443991Y-10497984D01*
X12682087Y-10497984D02*
X12682087Y-10297984D01*
X12767801Y-10497984D02*
X12767801Y-10393222D01*
X12767801Y-10393222D02*
X12758277Y-10374174D01*
X12758277Y-10374174D02*
X12739230Y-10364650D01*
X12739230Y-10364650D02*
X12710658Y-10364650D01*
X12710658Y-10364650D02*
X12691610Y-10374174D01*
X12691610Y-10374174D02*
X12682087Y-10383698D01*
X12891610Y-10497984D02*
X12872563Y-10488460D01*
X12872563Y-10488460D02*
X12863039Y-10478936D01*
X12863039Y-10478936D02*
X12853515Y-10459889D01*
X12853515Y-10459889D02*
X12853515Y-10402746D01*
X12853515Y-10402746D02*
X12863039Y-10383698D01*
X12863039Y-10383698D02*
X12872563Y-10374174D01*
X12872563Y-10374174D02*
X12891610Y-10364650D01*
X12891610Y-10364650D02*
X12920182Y-10364650D01*
X12920182Y-10364650D02*
X12939230Y-10374174D01*
X12939230Y-10374174D02*
X12948753Y-10383698D01*
X12948753Y-10383698D02*
X12958277Y-10402746D01*
X12958277Y-10402746D02*
X12958277Y-10459889D01*
X12958277Y-10459889D02*
X12948753Y-10478936D01*
X12948753Y-10478936D02*
X12939230Y-10488460D01*
X12939230Y-10488460D02*
X12920182Y-10497984D01*
X12920182Y-10497984D02*
X12891610Y-10497984D01*
X13072563Y-10497984D02*
X13053515Y-10488460D01*
X13053515Y-10488460D02*
X13043991Y-10469412D01*
X13043991Y-10469412D02*
X13043991Y-10297984D01*
X13224944Y-10488460D02*
X13205896Y-10497984D01*
X13205896Y-10497984D02*
X13167801Y-10497984D01*
X13167801Y-10497984D02*
X13148753Y-10488460D01*
X13148753Y-10488460D02*
X13139230Y-10469412D01*
X13139230Y-10469412D02*
X13139230Y-10393222D01*
X13139230Y-10393222D02*
X13148753Y-10374174D01*
X13148753Y-10374174D02*
X13167801Y-10364650D01*
X13167801Y-10364650D02*
X13205896Y-10364650D01*
X13205896Y-10364650D02*
X13224944Y-10374174D01*
X13224944Y-10374174D02*
X13234468Y-10393222D01*
X13234468Y-10393222D02*
X13234468Y-10412270D01*
X13234468Y-10412270D02*
X13139230Y-10431317D01*
X13310658Y-10488460D02*
X13329706Y-10497984D01*
X13329706Y-10497984D02*
X13367801Y-10497984D01*
X13367801Y-10497984D02*
X13386849Y-10488460D01*
X13386849Y-10488460D02*
X13396372Y-10469412D01*
X13396372Y-10469412D02*
X13396372Y-10459889D01*
X13396372Y-10459889D02*
X13386849Y-10440841D01*
X13386849Y-10440841D02*
X13367801Y-10431317D01*
X13367801Y-10431317D02*
X13339230Y-10431317D01*
X13339230Y-10431317D02*
X13320182Y-10421793D01*
X13320182Y-10421793D02*
X13310658Y-10402746D01*
X13310658Y-10402746D02*
X13310658Y-10393222D01*
X13310658Y-10393222D02*
X13320182Y-10374174D01*
X13320182Y-10374174D02*
X13339230Y-10364650D01*
X13339230Y-10364650D02*
X13367801Y-10364650D01*
X13367801Y-10364650D02*
X13386849Y-10374174D01*
X13463039Y-10574174D02*
X13472563Y-10564650D01*
X13472563Y-10564650D02*
X13491611Y-10536079D01*
X13491611Y-10536079D02*
X13501134Y-10517031D01*
X13501134Y-10517031D02*
X13510658Y-10488460D01*
X13510658Y-10488460D02*
X13520182Y-10440841D01*
X13520182Y-10440841D02*
X13520182Y-10402746D01*
X13520182Y-10402746D02*
X13510658Y-10355127D01*
X13510658Y-10355127D02*
X13501134Y-10326555D01*
X13501134Y-10326555D02*
X13491611Y-10307508D01*
X13491611Y-10307508D02*
X13472563Y-10278936D01*
X13472563Y-10278936D02*
X13463039Y-10269412D01*
D12*
X8467500Y-10640500D02*
X8467500Y-10700500D01*
X8437500Y-10670500D02*
X8497500Y-10670500D01*
D11*
X8796372Y-10561984D02*
X8815420Y-10561984D01*
X8815420Y-10561984D02*
X8834467Y-10571508D01*
X8834467Y-10571508D02*
X8843991Y-10581031D01*
X8843991Y-10581031D02*
X8853515Y-10600079D01*
X8853515Y-10600079D02*
X8863039Y-10638174D01*
X8863039Y-10638174D02*
X8863039Y-10685793D01*
X8863039Y-10685793D02*
X8853515Y-10723889D01*
X8853515Y-10723889D02*
X8843991Y-10742936D01*
X8843991Y-10742936D02*
X8834467Y-10752460D01*
X8834467Y-10752460D02*
X8815420Y-10761984D01*
X8815420Y-10761984D02*
X8796372Y-10761984D01*
X8796372Y-10761984D02*
X8777324Y-10752460D01*
X8777324Y-10752460D02*
X8767801Y-10742936D01*
X8767801Y-10742936D02*
X8758277Y-10723889D01*
X8758277Y-10723889D02*
X8748753Y-10685793D01*
X8748753Y-10685793D02*
X8748753Y-10638174D01*
X8748753Y-10638174D02*
X8758277Y-10600079D01*
X8758277Y-10600079D02*
X8767801Y-10581031D01*
X8767801Y-10581031D02*
X8777324Y-10571508D01*
X8777324Y-10571508D02*
X8796372Y-10561984D01*
X8948753Y-10742936D02*
X8958277Y-10752460D01*
X8958277Y-10752460D02*
X8948753Y-10761984D01*
X8948753Y-10761984D02*
X8939229Y-10752460D01*
X8939229Y-10752460D02*
X8948753Y-10742936D01*
X8948753Y-10742936D02*
X8948753Y-10761984D01*
X9129705Y-10561984D02*
X9091610Y-10561984D01*
X9091610Y-10561984D02*
X9072563Y-10571508D01*
X9072563Y-10571508D02*
X9063039Y-10581031D01*
X9063039Y-10581031D02*
X9043991Y-10609603D01*
X9043991Y-10609603D02*
X9034467Y-10647698D01*
X9034467Y-10647698D02*
X9034467Y-10723889D01*
X9034467Y-10723889D02*
X9043991Y-10742936D01*
X9043991Y-10742936D02*
X9053515Y-10752460D01*
X9053515Y-10752460D02*
X9072563Y-10761984D01*
X9072563Y-10761984D02*
X9110658Y-10761984D01*
X9110658Y-10761984D02*
X9129705Y-10752460D01*
X9129705Y-10752460D02*
X9139229Y-10742936D01*
X9139229Y-10742936D02*
X9148753Y-10723889D01*
X9148753Y-10723889D02*
X9148753Y-10676270D01*
X9148753Y-10676270D02*
X9139229Y-10657222D01*
X9139229Y-10657222D02*
X9129705Y-10647698D01*
X9129705Y-10647698D02*
X9110658Y-10638174D01*
X9110658Y-10638174D02*
X9072563Y-10638174D01*
X9072563Y-10638174D02*
X9053515Y-10647698D01*
X9053515Y-10647698D02*
X9043991Y-10657222D01*
X9043991Y-10657222D02*
X9034467Y-10676270D01*
X9272563Y-10561984D02*
X9291610Y-10561984D01*
X9291610Y-10561984D02*
X9310658Y-10571508D01*
X9310658Y-10571508D02*
X9320182Y-10581031D01*
X9320182Y-10581031D02*
X9329705Y-10600079D01*
X9329705Y-10600079D02*
X9339229Y-10638174D01*
X9339229Y-10638174D02*
X9339229Y-10685793D01*
X9339229Y-10685793D02*
X9329705Y-10723889D01*
X9329705Y-10723889D02*
X9320182Y-10742936D01*
X9320182Y-10742936D02*
X9310658Y-10752460D01*
X9310658Y-10752460D02*
X9291610Y-10761984D01*
X9291610Y-10761984D02*
X9272563Y-10761984D01*
X9272563Y-10761984D02*
X9253515Y-10752460D01*
X9253515Y-10752460D02*
X9243991Y-10742936D01*
X9243991Y-10742936D02*
X9234467Y-10723889D01*
X9234467Y-10723889D02*
X9224944Y-10685793D01*
X9224944Y-10685793D02*
X9224944Y-10638174D01*
X9224944Y-10638174D02*
X9234467Y-10600079D01*
X9234467Y-10600079D02*
X9243991Y-10581031D01*
X9243991Y-10581031D02*
X9253515Y-10571508D01*
X9253515Y-10571508D02*
X9272563Y-10561984D01*
X9463039Y-10561984D02*
X9482086Y-10561984D01*
X9482086Y-10561984D02*
X9501134Y-10571508D01*
X9501134Y-10571508D02*
X9510658Y-10581031D01*
X9510658Y-10581031D02*
X9520182Y-10600079D01*
X9520182Y-10600079D02*
X9529705Y-10638174D01*
X9529705Y-10638174D02*
X9529705Y-10685793D01*
X9529705Y-10685793D02*
X9520182Y-10723889D01*
X9520182Y-10723889D02*
X9510658Y-10742936D01*
X9510658Y-10742936D02*
X9501134Y-10752460D01*
X9501134Y-10752460D02*
X9482086Y-10761984D01*
X9482086Y-10761984D02*
X9463039Y-10761984D01*
X9463039Y-10761984D02*
X9443991Y-10752460D01*
X9443991Y-10752460D02*
X9434467Y-10742936D01*
X9434467Y-10742936D02*
X9424944Y-10723889D01*
X9424944Y-10723889D02*
X9415420Y-10685793D01*
X9415420Y-10685793D02*
X9415420Y-10638174D01*
X9415420Y-10638174D02*
X9424944Y-10600079D01*
X9424944Y-10600079D02*
X9434467Y-10581031D01*
X9434467Y-10581031D02*
X9443991Y-10571508D01*
X9443991Y-10571508D02*
X9463039Y-10561984D01*
X9615420Y-10761984D02*
X9615420Y-10628650D01*
X9615420Y-10647698D02*
X9624944Y-10638174D01*
X9624944Y-10638174D02*
X9643991Y-10628650D01*
X9643991Y-10628650D02*
X9672563Y-10628650D01*
X9672563Y-10628650D02*
X9691610Y-10638174D01*
X9691610Y-10638174D02*
X9701134Y-10657222D01*
X9701134Y-10657222D02*
X9701134Y-10761984D01*
X9701134Y-10657222D02*
X9710658Y-10638174D01*
X9710658Y-10638174D02*
X9729705Y-10628650D01*
X9729705Y-10628650D02*
X9758277Y-10628650D01*
X9758277Y-10628650D02*
X9777325Y-10638174D01*
X9777325Y-10638174D02*
X9786848Y-10657222D01*
X9786848Y-10657222D02*
X9786848Y-10761984D01*
X9882086Y-10761984D02*
X9882086Y-10628650D01*
X9882086Y-10647698D02*
X9891610Y-10638174D01*
X9891610Y-10638174D02*
X9910658Y-10628650D01*
X9910658Y-10628650D02*
X9939229Y-10628650D01*
X9939229Y-10628650D02*
X9958277Y-10638174D01*
X9958277Y-10638174D02*
X9967801Y-10657222D01*
X9967801Y-10657222D02*
X9967801Y-10761984D01*
X9967801Y-10657222D02*
X9977325Y-10638174D01*
X9977325Y-10638174D02*
X9996372Y-10628650D01*
X9996372Y-10628650D02*
X10024944Y-10628650D01*
X10024944Y-10628650D02*
X10043991Y-10638174D01*
X10043991Y-10638174D02*
X10053515Y-10657222D01*
X10053515Y-10657222D02*
X10053515Y-10761984D01*
X10443991Y-10552460D02*
X10272563Y-10809603D01*
X10701134Y-10561984D02*
X10720182Y-10561984D01*
X10720182Y-10561984D02*
X10739229Y-10571508D01*
X10739229Y-10571508D02*
X10748753Y-10581031D01*
X10748753Y-10581031D02*
X10758277Y-10600079D01*
X10758277Y-10600079D02*
X10767801Y-10638174D01*
X10767801Y-10638174D02*
X10767801Y-10685793D01*
X10767801Y-10685793D02*
X10758277Y-10723889D01*
X10758277Y-10723889D02*
X10748753Y-10742936D01*
X10748753Y-10742936D02*
X10739229Y-10752460D01*
X10739229Y-10752460D02*
X10720182Y-10761984D01*
X10720182Y-10761984D02*
X10701134Y-10761984D01*
X10701134Y-10761984D02*
X10682087Y-10752460D01*
X10682087Y-10752460D02*
X10672563Y-10742936D01*
X10672563Y-10742936D02*
X10663039Y-10723889D01*
X10663039Y-10723889D02*
X10653515Y-10685793D01*
X10653515Y-10685793D02*
X10653515Y-10638174D01*
X10653515Y-10638174D02*
X10663039Y-10600079D01*
X10663039Y-10600079D02*
X10672563Y-10581031D01*
X10672563Y-10581031D02*
X10682087Y-10571508D01*
X10682087Y-10571508D02*
X10701134Y-10561984D01*
X10853515Y-10742936D02*
X10863039Y-10752460D01*
X10863039Y-10752460D02*
X10853515Y-10761984D01*
X10853515Y-10761984D02*
X10843991Y-10752460D01*
X10843991Y-10752460D02*
X10853515Y-10742936D01*
X10853515Y-10742936D02*
X10853515Y-10761984D01*
X10986848Y-10561984D02*
X11005896Y-10561984D01*
X11005896Y-10561984D02*
X11024944Y-10571508D01*
X11024944Y-10571508D02*
X11034468Y-10581031D01*
X11034468Y-10581031D02*
X11043991Y-10600079D01*
X11043991Y-10600079D02*
X11053515Y-10638174D01*
X11053515Y-10638174D02*
X11053515Y-10685793D01*
X11053515Y-10685793D02*
X11043991Y-10723889D01*
X11043991Y-10723889D02*
X11034468Y-10742936D01*
X11034468Y-10742936D02*
X11024944Y-10752460D01*
X11024944Y-10752460D02*
X11005896Y-10761984D01*
X11005896Y-10761984D02*
X10986848Y-10761984D01*
X10986848Y-10761984D02*
X10967801Y-10752460D01*
X10967801Y-10752460D02*
X10958277Y-10742936D01*
X10958277Y-10742936D02*
X10948753Y-10723889D01*
X10948753Y-10723889D02*
X10939229Y-10685793D01*
X10939229Y-10685793D02*
X10939229Y-10638174D01*
X10939229Y-10638174D02*
X10948753Y-10600079D01*
X10948753Y-10600079D02*
X10958277Y-10581031D01*
X10958277Y-10581031D02*
X10967801Y-10571508D01*
X10967801Y-10571508D02*
X10986848Y-10561984D01*
X11129706Y-10581031D02*
X11139229Y-10571508D01*
X11139229Y-10571508D02*
X11158277Y-10561984D01*
X11158277Y-10561984D02*
X11205896Y-10561984D01*
X11205896Y-10561984D02*
X11224944Y-10571508D01*
X11224944Y-10571508D02*
X11234467Y-10581031D01*
X11234467Y-10581031D02*
X11243991Y-10600079D01*
X11243991Y-10600079D02*
X11243991Y-10619127D01*
X11243991Y-10619127D02*
X11234467Y-10647698D01*
X11234467Y-10647698D02*
X11120182Y-10761984D01*
X11120182Y-10761984D02*
X11243991Y-10761984D01*
X11310658Y-10561984D02*
X11434467Y-10561984D01*
X11434467Y-10561984D02*
X11367801Y-10638174D01*
X11367801Y-10638174D02*
X11396372Y-10638174D01*
X11396372Y-10638174D02*
X11415420Y-10647698D01*
X11415420Y-10647698D02*
X11424944Y-10657222D01*
X11424944Y-10657222D02*
X11434467Y-10676270D01*
X11434467Y-10676270D02*
X11434467Y-10723889D01*
X11434467Y-10723889D02*
X11424944Y-10742936D01*
X11424944Y-10742936D02*
X11415420Y-10752460D01*
X11415420Y-10752460D02*
X11396372Y-10761984D01*
X11396372Y-10761984D02*
X11339229Y-10761984D01*
X11339229Y-10761984D02*
X11320182Y-10752460D01*
X11320182Y-10752460D02*
X11310658Y-10742936D01*
X11605896Y-10561984D02*
X11567801Y-10561984D01*
X11567801Y-10561984D02*
X11548753Y-10571508D01*
X11548753Y-10571508D02*
X11539229Y-10581031D01*
X11539229Y-10581031D02*
X11520182Y-10609603D01*
X11520182Y-10609603D02*
X11510658Y-10647698D01*
X11510658Y-10647698D02*
X11510658Y-10723889D01*
X11510658Y-10723889D02*
X11520182Y-10742936D01*
X11520182Y-10742936D02*
X11529706Y-10752460D01*
X11529706Y-10752460D02*
X11548753Y-10761984D01*
X11548753Y-10761984D02*
X11586848Y-10761984D01*
X11586848Y-10761984D02*
X11605896Y-10752460D01*
X11605896Y-10752460D02*
X11615420Y-10742936D01*
X11615420Y-10742936D02*
X11624944Y-10723889D01*
X11624944Y-10723889D02*
X11624944Y-10676270D01*
X11624944Y-10676270D02*
X11615420Y-10657222D01*
X11615420Y-10657222D02*
X11605896Y-10647698D01*
X11605896Y-10647698D02*
X11586848Y-10638174D01*
X11586848Y-10638174D02*
X11548753Y-10638174D01*
X11548753Y-10638174D02*
X11529706Y-10647698D01*
X11529706Y-10647698D02*
X11520182Y-10657222D01*
X11520182Y-10657222D02*
X11510658Y-10676270D01*
X11701134Y-10561984D02*
X11701134Y-10600079D01*
X11777325Y-10561984D02*
X11777325Y-10600079D01*
X12072563Y-10838174D02*
X12063039Y-10828650D01*
X12063039Y-10828650D02*
X12043991Y-10800079D01*
X12043991Y-10800079D02*
X12034468Y-10781031D01*
X12034468Y-10781031D02*
X12024944Y-10752460D01*
X12024944Y-10752460D02*
X12015420Y-10704841D01*
X12015420Y-10704841D02*
X12015420Y-10666746D01*
X12015420Y-10666746D02*
X12024944Y-10619127D01*
X12024944Y-10619127D02*
X12034468Y-10590555D01*
X12034468Y-10590555D02*
X12043991Y-10571508D01*
X12043991Y-10571508D02*
X12063039Y-10542936D01*
X12063039Y-10542936D02*
X12072563Y-10533412D01*
X12253515Y-10761984D02*
X12139229Y-10761984D01*
X12196372Y-10761984D02*
X12196372Y-10561984D01*
X12196372Y-10561984D02*
X12177325Y-10590555D01*
X12177325Y-10590555D02*
X12158277Y-10609603D01*
X12158277Y-10609603D02*
X12139229Y-10619127D01*
X12377325Y-10561984D02*
X12396372Y-10561984D01*
X12396372Y-10561984D02*
X12415420Y-10571508D01*
X12415420Y-10571508D02*
X12424944Y-10581031D01*
X12424944Y-10581031D02*
X12434468Y-10600079D01*
X12434468Y-10600079D02*
X12443991Y-10638174D01*
X12443991Y-10638174D02*
X12443991Y-10685793D01*
X12443991Y-10685793D02*
X12434468Y-10723889D01*
X12434468Y-10723889D02*
X12424944Y-10742936D01*
X12424944Y-10742936D02*
X12415420Y-10752460D01*
X12415420Y-10752460D02*
X12396372Y-10761984D01*
X12396372Y-10761984D02*
X12377325Y-10761984D01*
X12377325Y-10761984D02*
X12358277Y-10752460D01*
X12358277Y-10752460D02*
X12348753Y-10742936D01*
X12348753Y-10742936D02*
X12339229Y-10723889D01*
X12339229Y-10723889D02*
X12329706Y-10685793D01*
X12329706Y-10685793D02*
X12329706Y-10638174D01*
X12329706Y-10638174D02*
X12339229Y-10600079D01*
X12339229Y-10600079D02*
X12348753Y-10581031D01*
X12348753Y-10581031D02*
X12358277Y-10571508D01*
X12358277Y-10571508D02*
X12377325Y-10561984D01*
X12682087Y-10761984D02*
X12682087Y-10561984D01*
X12767801Y-10761984D02*
X12767801Y-10657222D01*
X12767801Y-10657222D02*
X12758277Y-10638174D01*
X12758277Y-10638174D02*
X12739230Y-10628650D01*
X12739230Y-10628650D02*
X12710658Y-10628650D01*
X12710658Y-10628650D02*
X12691610Y-10638174D01*
X12691610Y-10638174D02*
X12682087Y-10647698D01*
X12891610Y-10761984D02*
X12872563Y-10752460D01*
X12872563Y-10752460D02*
X12863039Y-10742936D01*
X12863039Y-10742936D02*
X12853515Y-10723889D01*
X12853515Y-10723889D02*
X12853515Y-10666746D01*
X12853515Y-10666746D02*
X12863039Y-10647698D01*
X12863039Y-10647698D02*
X12872563Y-10638174D01*
X12872563Y-10638174D02*
X12891610Y-10628650D01*
X12891610Y-10628650D02*
X12920182Y-10628650D01*
X12920182Y-10628650D02*
X12939230Y-10638174D01*
X12939230Y-10638174D02*
X12948753Y-10647698D01*
X12948753Y-10647698D02*
X12958277Y-10666746D01*
X12958277Y-10666746D02*
X12958277Y-10723889D01*
X12958277Y-10723889D02*
X12948753Y-10742936D01*
X12948753Y-10742936D02*
X12939230Y-10752460D01*
X12939230Y-10752460D02*
X12920182Y-10761984D01*
X12920182Y-10761984D02*
X12891610Y-10761984D01*
X13072563Y-10761984D02*
X13053515Y-10752460D01*
X13053515Y-10752460D02*
X13043991Y-10733412D01*
X13043991Y-10733412D02*
X13043991Y-10561984D01*
X13224944Y-10752460D02*
X13205896Y-10761984D01*
X13205896Y-10761984D02*
X13167801Y-10761984D01*
X13167801Y-10761984D02*
X13148753Y-10752460D01*
X13148753Y-10752460D02*
X13139230Y-10733412D01*
X13139230Y-10733412D02*
X13139230Y-10657222D01*
X13139230Y-10657222D02*
X13148753Y-10638174D01*
X13148753Y-10638174D02*
X13167801Y-10628650D01*
X13167801Y-10628650D02*
X13205896Y-10628650D01*
X13205896Y-10628650D02*
X13224944Y-10638174D01*
X13224944Y-10638174D02*
X13234468Y-10657222D01*
X13234468Y-10657222D02*
X13234468Y-10676270D01*
X13234468Y-10676270D02*
X13139230Y-10695317D01*
X13310658Y-10752460D02*
X13329706Y-10761984D01*
X13329706Y-10761984D02*
X13367801Y-10761984D01*
X13367801Y-10761984D02*
X13386849Y-10752460D01*
X13386849Y-10752460D02*
X13396372Y-10733412D01*
X13396372Y-10733412D02*
X13396372Y-10723889D01*
X13396372Y-10723889D02*
X13386849Y-10704841D01*
X13386849Y-10704841D02*
X13367801Y-10695317D01*
X13367801Y-10695317D02*
X13339230Y-10695317D01*
X13339230Y-10695317D02*
X13320182Y-10685793D01*
X13320182Y-10685793D02*
X13310658Y-10666746D01*
X13310658Y-10666746D02*
X13310658Y-10657222D01*
X13310658Y-10657222D02*
X13320182Y-10638174D01*
X13320182Y-10638174D02*
X13339230Y-10628650D01*
X13339230Y-10628650D02*
X13367801Y-10628650D01*
X13367801Y-10628650D02*
X13386849Y-10638174D01*
X13463039Y-10838174D02*
X13472563Y-10828650D01*
X13472563Y-10828650D02*
X13491611Y-10800079D01*
X13491611Y-10800079D02*
X13501134Y-10781031D01*
X13501134Y-10781031D02*
X13510658Y-10752460D01*
X13510658Y-10752460D02*
X13520182Y-10704841D01*
X13520182Y-10704841D02*
X13520182Y-10666746D01*
X13520182Y-10666746D02*
X13510658Y-10619127D01*
X13510658Y-10619127D02*
X13501134Y-10590555D01*
X13501134Y-10590555D02*
X13491611Y-10571508D01*
X13491611Y-10571508D02*
X13472563Y-10542936D01*
X13472563Y-10542936D02*
X13463039Y-10533412D01*
M02*
