M48
; DRILL file {KiCad 8.0.3} date 2024-06-27T10:28:45+0200
; FORMAT={-:-/ absolute / metric / decimal}
; #@! TF.CreationDate,2024-06-27T10:28:45+02:00
; #@! TF.GenerationSoftware,Kicad,Pcbnew,8.0.3
; #@! TF.FileFunction,Plated,1,2,PTH
FMAT,2
METRIC
; #@! TA.AperFunction,Plated,PTH,ViaDrill
T1C0.300
; #@! TA.AperFunction,Plated,PTH,ComponentDrill
T2C0.508
; #@! TA.AperFunction,Plated,PTH,ComponentDrill
T3C0.600
%
G90
G05
T1
X86.0Y-46.0
X86.0Y-48.0
X86.0Y-50.0
X86.0Y-52.0
X86.0Y-54.0
X86.0Y-56.0
X86.0Y-58.0
X86.0Y-60.0
X86.0Y-62.0
X86.0Y-64.0
X86.0Y-66.0
X86.0Y-68.0
X86.0Y-69.0
X86.0Y-71.0
X86.0Y-73.0
X86.0Y-75.0
X86.0Y-77.0
X86.0Y-79.0
X86.0Y-81.0
X86.0Y-83.0
X86.0Y-85.0
X86.0Y-87.0
X86.0Y-89.0
X86.0Y-91.0
X86.0Y-93.0
X86.0Y-94.0
X88.0Y-46.0
X88.0Y-69.0
X88.0Y-71.0
X88.0Y-94.0
X90.0Y-46.0
X90.0Y-69.0
X90.0Y-71.0
X90.0Y-94.0
X92.0Y-46.0
X92.0Y-69.0
X92.0Y-71.0
X92.0Y-94.0
X94.0Y-46.0
X94.0Y-69.0
X94.0Y-71.0
X94.0Y-94.0
X96.0Y-46.0
X96.0Y-69.0
X96.0Y-71.0
X96.0Y-94.0
X98.0Y-46.0
X98.0Y-69.0
X98.0Y-71.0
X98.0Y-94.0
X100.0Y-46.0
X100.0Y-69.0
X100.0Y-71.0
X100.0Y-94.0
X102.0Y-46.0
X102.0Y-69.0
X102.0Y-71.0
X102.0Y-94.0
X104.0Y-46.0
X104.0Y-69.0
X104.0Y-71.0
X104.0Y-94.0
X106.0Y-46.0
X106.0Y-69.0
X106.0Y-71.0
X106.0Y-94.0
X108.0Y-46.0
X108.0Y-69.0
X108.0Y-71.0
X108.0Y-94.0
X110.0Y-46.0
X110.0Y-69.0
X110.0Y-71.0
X110.0Y-94.0
X112.0Y-46.0
X112.0Y-69.0
X112.0Y-71.0
X112.0Y-94.0
X114.0Y-46.0
X114.0Y-69.0
X114.0Y-71.0
X114.0Y-94.0
X116.0Y-46.0
X116.0Y-69.0
X116.0Y-71.0
X116.0Y-94.0
X118.0Y-46.0
X118.0Y-69.0
X118.0Y-71.0
X118.0Y-94.0
X120.0Y-46.0
X120.0Y-69.0
X120.0Y-71.0
X120.0Y-94.0
X122.0Y-46.0
X122.0Y-69.0
X122.0Y-71.0
X122.0Y-94.0
X124.0Y-46.0
X124.0Y-48.0
X124.0Y-50.0
X124.0Y-52.0
X124.0Y-54.0
X124.0Y-56.0
X124.0Y-58.0
X124.0Y-60.0
X124.0Y-62.0
X124.0Y-64.0
X124.0Y-66.0
X124.0Y-68.0
X124.0Y-69.0
X124.0Y-71.0
X124.0Y-73.0
X124.0Y-75.0
X124.0Y-77.0
X124.0Y-79.0
X124.0Y-81.0
X124.0Y-83.0
X124.0Y-85.0
X124.0Y-87.0
X124.0Y-89.0
X124.0Y-91.0
X124.0Y-93.0
X124.0Y-94.0
T2
X97.078Y-51.015
X97.078Y-76.015
X97.84Y-56.73
X97.84Y-58.0
X97.84Y-81.73
X97.84Y-83.0
X98.602Y-51.015
X98.602Y-76.015
X100.38Y-56.73
X100.38Y-58.0
X100.38Y-81.73
X100.38Y-83.0
X102.158Y-51.015
X102.158Y-63.715
X102.158Y-76.015
X102.158Y-88.715
X102.92Y-56.73
X102.92Y-58.0
X102.92Y-81.73
X102.92Y-83.0
X103.682Y-51.015
X103.682Y-63.715
X103.682Y-76.015
X103.682Y-88.715
X105.46Y-56.73
X105.46Y-58.0
X105.46Y-81.73
X105.46Y-83.0
X107.238Y-51.015
X107.238Y-63.715
X107.238Y-76.015
X107.238Y-88.715
X108.0Y-56.73
X108.0Y-58.0
X108.0Y-81.73
X108.0Y-83.0
X108.762Y-51.015
X108.762Y-63.715
X108.762Y-76.015
X108.762Y-88.715
X110.54Y-56.73
X110.54Y-58.0
X110.54Y-81.73
X110.54Y-83.0
X112.318Y-63.715
X112.318Y-88.715
X113.08Y-56.73
X113.08Y-58.0
X113.08Y-81.73
X113.08Y-83.0
X113.842Y-63.715
X113.842Y-88.715
T3
X88.0Y-61.5
X88.0Y-66.8
X88.0Y-86.5
X88.0Y-91.8
X104.7Y-67.0
X104.7Y-92.0
X122.0Y-59.0
X122.0Y-66.8
X122.0Y-84.0
X122.0Y-91.8
M30
