%TF.GenerationSoftware,KiCad,Pcbnew,8.0.3*%
%TF.CreationDate,2024-07-11T09:46:18+02:00*%
%TF.ProjectId,double_145MHz_BPF,646f7562-6c65-45f3-9134-354d487a5f42,rev?*%
%TF.SameCoordinates,Original*%
%TF.FileFunction,Drillmap*%
%TF.FilePolarity,Positive*%
%FSLAX45Y45*%
G04 Gerber Fmt 4.5, Leading zero omitted, Abs format (unit mm)*
G04 Created by KiCad (PCBNEW 8.0.3) date 2024-07-11 09:46:18*
%MOMM*%
%LPD*%
G01*
G04 APERTURE LIST*
%ADD10C,0.050000*%
%ADD11C,0.200000*%
G04 APERTURE END LIST*
D10*
X8500000Y-4500000D02*
X12500000Y-4500000D01*
X12500000Y-7000000D01*
X8500000Y-7000000D01*
X8500000Y-4500000D01*
D11*
X8758277Y-7313984D02*
X8758277Y-7113984D01*
X8758277Y-7113984D02*
X8805896Y-7113984D01*
X8805896Y-7113984D02*
X8834467Y-7123508D01*
X8834467Y-7123508D02*
X8853515Y-7142555D01*
X8853515Y-7142555D02*
X8863039Y-7161603D01*
X8863039Y-7161603D02*
X8872563Y-7199698D01*
X8872563Y-7199698D02*
X8872563Y-7228269D01*
X8872563Y-7228269D02*
X8863039Y-7266365D01*
X8863039Y-7266365D02*
X8853515Y-7285412D01*
X8853515Y-7285412D02*
X8834467Y-7304460D01*
X8834467Y-7304460D02*
X8805896Y-7313984D01*
X8805896Y-7313984D02*
X8758277Y-7313984D01*
X8958277Y-7313984D02*
X8958277Y-7180650D01*
X8958277Y-7218746D02*
X8967801Y-7199698D01*
X8967801Y-7199698D02*
X8977324Y-7190174D01*
X8977324Y-7190174D02*
X8996372Y-7180650D01*
X8996372Y-7180650D02*
X9015420Y-7180650D01*
X9082086Y-7313984D02*
X9082086Y-7180650D01*
X9082086Y-7113984D02*
X9072563Y-7123508D01*
X9072563Y-7123508D02*
X9082086Y-7133031D01*
X9082086Y-7133031D02*
X9091610Y-7123508D01*
X9091610Y-7123508D02*
X9082086Y-7113984D01*
X9082086Y-7113984D02*
X9082086Y-7133031D01*
X9205896Y-7313984D02*
X9186848Y-7304460D01*
X9186848Y-7304460D02*
X9177324Y-7285412D01*
X9177324Y-7285412D02*
X9177324Y-7113984D01*
X9310658Y-7313984D02*
X9291610Y-7304460D01*
X9291610Y-7304460D02*
X9282086Y-7285412D01*
X9282086Y-7285412D02*
X9282086Y-7113984D01*
X9539229Y-7313984D02*
X9539229Y-7113984D01*
X9539229Y-7113984D02*
X9605896Y-7256841D01*
X9605896Y-7256841D02*
X9672563Y-7113984D01*
X9672563Y-7113984D02*
X9672563Y-7313984D01*
X9853515Y-7313984D02*
X9853515Y-7209222D01*
X9853515Y-7209222D02*
X9843991Y-7190174D01*
X9843991Y-7190174D02*
X9824944Y-7180650D01*
X9824944Y-7180650D02*
X9786848Y-7180650D01*
X9786848Y-7180650D02*
X9767801Y-7190174D01*
X9853515Y-7304460D02*
X9834467Y-7313984D01*
X9834467Y-7313984D02*
X9786848Y-7313984D01*
X9786848Y-7313984D02*
X9767801Y-7304460D01*
X9767801Y-7304460D02*
X9758277Y-7285412D01*
X9758277Y-7285412D02*
X9758277Y-7266365D01*
X9758277Y-7266365D02*
X9767801Y-7247317D01*
X9767801Y-7247317D02*
X9786848Y-7237793D01*
X9786848Y-7237793D02*
X9834467Y-7237793D01*
X9834467Y-7237793D02*
X9853515Y-7228269D01*
X9948753Y-7180650D02*
X9948753Y-7380650D01*
X9948753Y-7190174D02*
X9967801Y-7180650D01*
X9967801Y-7180650D02*
X10005896Y-7180650D01*
X10005896Y-7180650D02*
X10024944Y-7190174D01*
X10024944Y-7190174D02*
X10034467Y-7199698D01*
X10034467Y-7199698D02*
X10043991Y-7218746D01*
X10043991Y-7218746D02*
X10043991Y-7275888D01*
X10043991Y-7275888D02*
X10034467Y-7294936D01*
X10034467Y-7294936D02*
X10024944Y-7304460D01*
X10024944Y-7304460D02*
X10005896Y-7313984D01*
X10005896Y-7313984D02*
X9967801Y-7313984D01*
X9967801Y-7313984D02*
X9948753Y-7304460D01*
X10129705Y-7294936D02*
X10139229Y-7304460D01*
X10139229Y-7304460D02*
X10129705Y-7313984D01*
X10129705Y-7313984D02*
X10120182Y-7304460D01*
X10120182Y-7304460D02*
X10129705Y-7294936D01*
X10129705Y-7294936D02*
X10129705Y-7313984D01*
X10129705Y-7190174D02*
X10139229Y-7199698D01*
X10139229Y-7199698D02*
X10129705Y-7209222D01*
X10129705Y-7209222D02*
X10120182Y-7199698D01*
X10120182Y-7199698D02*
X10129705Y-7190174D01*
X10129705Y-7190174D02*
X10129705Y-7209222D01*
M02*
