M48
; DRILL file {KiCad 8.0.3} date 2024-07-11T09:46:18+0200
; FORMAT={-:-/ absolute / metric / decimal}
; #@! TF.CreationDate,2024-07-11T09:46:18+02:00
; #@! TF.GenerationSoftware,Kicad,Pcbnew,8.0.3
; #@! TF.FileFunction,Plated,1,2,PTH
FMAT,2
METRIC
; #@! TA.AperFunction,Plated,PTH,ViaDrill
T1C0.300
; #@! TA.AperFunction,Plated,PTH,ComponentDrill
T2C0.508
; #@! TA.AperFunction,Plated,PTH,ComponentDrill
T3C0.600
; #@! TA.AperFunction,Plated,PTH,ComponentDrill
T4C0.900
%
G90
G05
T1
X86.0Y-46.0
X86.0Y-48.0
X86.0Y-50.0
X86.0Y-52.0
X86.0Y-54.0
X86.0Y-56.0
X86.0Y-58.0
X86.0Y-62.0
X86.0Y-64.0
X86.0Y-66.0
X86.0Y-68.0
X86.0Y-69.0
X88.0Y-69.0
X90.0Y-69.1
X92.0Y-69.0
X94.0Y-69.0
X96.0Y-46.0
X96.0Y-69.0
X98.0Y-46.0
X98.0Y-69.0
X100.0Y-46.0
X100.0Y-69.0
X102.0Y-46.0
X102.0Y-69.0
X104.0Y-46.0
X104.0Y-69.0
X106.0Y-46.0
X106.0Y-69.0
X108.0Y-46.0
X108.0Y-69.0
X110.0Y-46.0
X110.0Y-69.0
X112.0Y-46.0
X112.0Y-69.0
X114.0Y-46.0
X114.0Y-69.0
X116.0Y-46.0
X118.0Y-46.0
X120.0Y-46.0
X122.0Y-46.0
X124.0Y-46.0
X124.0Y-48.0
X124.0Y-50.0
X124.0Y-52.0
X124.0Y-54.0
X124.0Y-56.0
X124.0Y-58.0
X124.0Y-60.0
X124.0Y-62.0
X124.0Y-64.0
X124.0Y-66.0
X124.0Y-68.0
X124.0Y-69.0
T2
X89.8Y-52.396
X89.8Y-53.92
X89.8Y-57.476
X89.8Y-59.0
X89.8Y-62.556
X89.8Y-64.08
X95.515Y-48.078
X95.515Y-50.618
X95.515Y-53.158
X95.515Y-55.698
X95.515Y-58.238
X95.515Y-60.778
X95.515Y-63.318
X96.785Y-48.078
X96.785Y-50.618
X96.785Y-53.158
X96.785Y-55.698
X96.785Y-58.238
X96.785Y-60.778
X96.785Y-63.318
X102.5Y-47.316
X102.5Y-48.84
X102.5Y-52.396
X102.5Y-53.92
X102.5Y-57.476
X102.5Y-59.0
X107.379Y-55.838
X107.379Y-57.362
X107.379Y-60.918
X107.379Y-62.442
X107.379Y-65.998
X107.379Y-67.522
X113.094Y-51.52
X113.094Y-54.06
X113.094Y-56.6
X113.094Y-59.14
X113.094Y-61.68
X113.094Y-64.22
X113.094Y-66.76
X114.364Y-51.52
X114.364Y-54.06
X114.364Y-56.6
X114.364Y-59.14
X114.364Y-61.68
X114.364Y-64.22
X114.364Y-66.76
X120.079Y-50.758
X120.079Y-52.282
X120.079Y-55.838
X120.079Y-57.362
X120.079Y-60.918
X120.079Y-62.442
T3
X86.0Y-60.0
X104.7Y-67.0
T4
X88.0Y-66.8
X122.0Y-59.8
X122.0Y-66.8
M30
