G04 #@! TF.GenerationSoftware,KiCad,Pcbnew,8.0.3*
G04 #@! TF.CreationDate,2024-07-29T12:18:52+02:00*
G04 #@! TF.ProjectId,double_145MHz_BPF,646f7562-6c65-45f3-9134-354d487a5f42,rev?*
G04 #@! TF.SameCoordinates,Original*
G04 #@! TF.FileFunction,Copper,L2,Bot*
G04 #@! TF.FilePolarity,Positive*
%FSLAX46Y46*%
G04 Gerber Fmt 4.6, Leading zero omitted, Abs format (unit mm)*
G04 Created by KiCad (PCBNEW 8.0.3) date 2024-07-29 12:18:52*
%MOMM*%
%LPD*%
G01*
G04 APERTURE LIST*
G04 Aperture macros list*
%AMRoundRect*
0 Rectangle with rounded corners*
0 $1 Rounding radius*
0 $2 $3 $4 $5 $6 $7 $8 $9 X,Y pos of 4 corners*
0 Add a 4 corners polygon primitive as box body*
4,1,4,$2,$3,$4,$5,$6,$7,$8,$9,$2,$3,0*
0 Add four circle primitives for the rounded corners*
1,1,$1+$1,$2,$3*
1,1,$1+$1,$4,$5*
1,1,$1+$1,$6,$7*
1,1,$1+$1,$8,$9*
0 Add four rect primitives between the rounded corners*
20,1,$1+$1,$2,$3,$4,$5,0*
20,1,$1+$1,$4,$5,$6,$7,0*
20,1,$1+$1,$6,$7,$8,$9,0*
20,1,$1+$1,$8,$9,$2,$3,0*%
G04 Aperture macros list end*
G04 #@! TA.AperFunction,ComponentPad*
%ADD10C,1.016000*%
G04 #@! TD*
G04 #@! TA.AperFunction,ComponentPad*
%ADD11RoundRect,0.250000X0.550000X-0.550000X0.550000X0.550000X-0.550000X0.550000X-0.550000X-0.550000X0*%
G04 #@! TD*
G04 #@! TA.AperFunction,ComponentPad*
%ADD12C,1.600000*%
G04 #@! TD*
G04 #@! TA.AperFunction,ComponentPad*
%ADD13RoundRect,0.250000X-0.550000X-0.550000X0.550000X-0.550000X0.550000X0.550000X-0.550000X0.550000X0*%
G04 #@! TD*
G04 #@! TA.AperFunction,ComponentPad*
%ADD14C,0.900000*%
G04 #@! TD*
G04 #@! TA.AperFunction,ViaPad*
%ADD15C,0.600000*%
G04 #@! TD*
G04 APERTURE END LIST*
D10*
X107379500Y-67522000D03*
X107379500Y-65998000D03*
X120079500Y-62442000D03*
X120079500Y-60918000D03*
X107379500Y-62442000D03*
X107379500Y-60918000D03*
X120079500Y-57362000D03*
X120079500Y-55838000D03*
X107379500Y-57362000D03*
X107379500Y-55838000D03*
X120079500Y-52282000D03*
X120079500Y-50758000D03*
X114364500Y-66760000D03*
X114364500Y-64220000D03*
X114364500Y-61680000D03*
X114364500Y-59140000D03*
X114364500Y-56600000D03*
X114364500Y-54060000D03*
X114364500Y-51520000D03*
X113094500Y-66760000D03*
X113094500Y-64220000D03*
X113094500Y-61680000D03*
X113094500Y-59140000D03*
X113094500Y-56600000D03*
X113094500Y-54060000D03*
X113094500Y-51520000D03*
X102500000Y-47316000D03*
X102500000Y-48840000D03*
X89800000Y-52396000D03*
X89800000Y-53920000D03*
X102500000Y-52396000D03*
X102500000Y-53920000D03*
X89800000Y-57476000D03*
X89800000Y-59000000D03*
X102500000Y-57476000D03*
X102500000Y-59000000D03*
X89800000Y-62556000D03*
X89800000Y-64080000D03*
X95515000Y-48078000D03*
X95515000Y-50618000D03*
X95515000Y-53158000D03*
X95515000Y-55698000D03*
X95515000Y-58238000D03*
X95515000Y-60778000D03*
X95515000Y-63318000D03*
X96785000Y-48078000D03*
X96785000Y-50618000D03*
X96785000Y-53158000D03*
X96785000Y-55698000D03*
X96785000Y-58238000D03*
X96785000Y-60778000D03*
X96785000Y-63318000D03*
D11*
X122000000Y-66800000D03*
D12*
X122000000Y-59800000D03*
D13*
X104700000Y-67000000D03*
D11*
X88000000Y-66800000D03*
D14*
X86000000Y-60000000D03*
D15*
X124000000Y-66000000D03*
X86000000Y-58000000D03*
X96000000Y-46000000D03*
X86000000Y-64000000D03*
X124000000Y-50000000D03*
X110000000Y-69000000D03*
X124000000Y-52000000D03*
X114000000Y-69000000D03*
X86000000Y-68000000D03*
X86000000Y-46000000D03*
X124000000Y-68000000D03*
X124000000Y-56000000D03*
X104000000Y-46000000D03*
X92000000Y-69000000D03*
X96000000Y-69000000D03*
X102000000Y-46000000D03*
X124000000Y-62000000D03*
X124000000Y-46000000D03*
X90000000Y-69100000D03*
X110000000Y-46000000D03*
X88000000Y-69000000D03*
X102000000Y-69000000D03*
X124000000Y-64000000D03*
X86000000Y-66000000D03*
X86000000Y-52000000D03*
X98000000Y-46000000D03*
X124000000Y-48000000D03*
X86000000Y-48000000D03*
X94000000Y-69000000D03*
X116000000Y-46000000D03*
X112000000Y-69000000D03*
X118000000Y-46000000D03*
X86000000Y-56000000D03*
X112000000Y-46000000D03*
X104000000Y-69000000D03*
X86000000Y-62000000D03*
X106000000Y-46000000D03*
X124000000Y-58000000D03*
X124000000Y-69000000D03*
X98000000Y-69000000D03*
X108000000Y-46000000D03*
X86000000Y-54000000D03*
X114000000Y-46000000D03*
X124000000Y-54000000D03*
X122000000Y-46000000D03*
X100000000Y-69000000D03*
X100000000Y-46000000D03*
X108000000Y-69000000D03*
X120000000Y-46000000D03*
X124000000Y-60000000D03*
X106000000Y-69000000D03*
X86000000Y-50000000D03*
X86000000Y-69000000D03*
G04 #@! TA.AperFunction,Conductor*
G36*
X124442539Y-45520185D02*
G01*
X124488294Y-45572989D01*
X124499500Y-45624500D01*
X124499500Y-69375500D01*
X124479815Y-69442539D01*
X124427011Y-69488294D01*
X124375500Y-69499500D01*
X85624500Y-69499500D01*
X85557461Y-69479815D01*
X85511706Y-69427011D01*
X85500500Y-69375500D01*
X85500500Y-66199983D01*
X86699500Y-66199983D01*
X86699500Y-67400001D01*
X86699501Y-67400018D01*
X86710000Y-67502796D01*
X86710001Y-67502799D01*
X86765185Y-67669331D01*
X86765186Y-67669334D01*
X86857288Y-67818656D01*
X86981344Y-67942712D01*
X87130666Y-68034814D01*
X87297203Y-68089999D01*
X87399991Y-68100500D01*
X88600008Y-68100499D01*
X88702797Y-68089999D01*
X88869334Y-68034814D01*
X89018656Y-67942712D01*
X89142712Y-67818656D01*
X89234814Y-67669334D01*
X89289999Y-67502797D01*
X89300500Y-67400009D01*
X89300499Y-66199992D01*
X89300498Y-66199983D01*
X120699500Y-66199983D01*
X120699500Y-67400001D01*
X120699501Y-67400018D01*
X120710000Y-67502796D01*
X120710001Y-67502799D01*
X120765185Y-67669331D01*
X120765186Y-67669334D01*
X120857288Y-67818656D01*
X120981344Y-67942712D01*
X121130666Y-68034814D01*
X121297203Y-68089999D01*
X121399991Y-68100500D01*
X122600008Y-68100499D01*
X122702797Y-68089999D01*
X122869334Y-68034814D01*
X123018656Y-67942712D01*
X123142712Y-67818656D01*
X123234814Y-67669334D01*
X123289999Y-67502797D01*
X123300500Y-67400009D01*
X123300499Y-66199992D01*
X123289999Y-66097203D01*
X123234814Y-65930666D01*
X123142712Y-65781344D01*
X123018656Y-65657288D01*
X122869334Y-65565186D01*
X122702797Y-65510001D01*
X122702795Y-65510000D01*
X122600010Y-65499500D01*
X121399998Y-65499500D01*
X121399981Y-65499501D01*
X121297203Y-65510000D01*
X121297200Y-65510001D01*
X121130668Y-65565185D01*
X121130663Y-65565187D01*
X120981342Y-65657289D01*
X120857289Y-65781342D01*
X120765187Y-65930663D01*
X120765186Y-65930666D01*
X120710001Y-66097203D01*
X120710001Y-66097204D01*
X120710000Y-66097204D01*
X120699500Y-66199983D01*
X89300498Y-66199983D01*
X89289999Y-66097203D01*
X89234814Y-65930666D01*
X89142712Y-65781344D01*
X89018656Y-65657288D01*
X88869334Y-65565186D01*
X88702797Y-65510001D01*
X88702795Y-65510000D01*
X88600010Y-65499500D01*
X87399998Y-65499500D01*
X87399981Y-65499501D01*
X87297203Y-65510000D01*
X87297200Y-65510001D01*
X87130668Y-65565185D01*
X87130663Y-65565187D01*
X86981342Y-65657289D01*
X86857289Y-65781342D01*
X86765187Y-65930663D01*
X86765186Y-65930666D01*
X86710001Y-66097203D01*
X86710001Y-66097204D01*
X86710000Y-66097204D01*
X86699500Y-66199983D01*
X85500500Y-66199983D01*
X85500500Y-45624500D01*
X85520185Y-45557461D01*
X85572989Y-45511706D01*
X85624500Y-45500500D01*
X124375500Y-45500500D01*
X124442539Y-45520185D01*
G37*
G04 #@! TD.AperFunction*
M02*
